<?xml version="1.0" encoding="UTF-8"?>
<svg version="1.1" xmlns="http://www.w3.org/2000/svg" width="2550" height="2882">
<path d="M0 0 C65.34 0 130.68 0 198 0 C214.08768787 52.85954587 214.08768787 52.85954587 219.2421875 70.13671875 C219.85109811 72.17431675 220.46011634 74.21188259 221.06922913 76.24942017 C222.34668982 80.52339289 223.62346624 84.79756908 224.89962769 89.07192993 C226.95209412 95.94635898 229.0063463 102.82025375 231.06079102 109.6940918 C233.94589019 119.34764648 236.83037106 129.00138567 239.71435547 138.65527344 C246.12252122 160.10569234 252.53450648 181.55496918 258.94812775 203.00375748 C259.60919203 205.21454466 260.27023829 207.42533722 260.93126678 209.6361351 C272.11770913 247.04897358 283.33160284 284.45352882 294.55737305 321.85458374 C306.06963417 360.21074774 317.55232705 398.57569568 329.02245903 436.94447708 C330.6698665 442.4551884 332.31732686 447.9658839 333.96484375 453.4765625 C334.28006863 454.53094765 334.5952935 455.58533279 334.92007065 456.67166901 C340.26384459 474.54514283 345.61990764 492.41488242 350.98556519 510.28179932 C359.3718197 538.20990771 367.71959092 566.1495297 376.07263184 594.08758545 C388.02020815 634.04861781 388.02020815 634.04861781 400 674 C408.061921 700.84810973 416.09386653 727.70516743 424.125 754.5625 C424.81706693 756.87682104 425.50913439 759.19114192 426.20120239 761.50546265 C432.8163071 783.62704158 439.43047585 805.74890024 446.04319 827.87119389 C449.6742096 840.01842062 453.30564469 852.1655231 456.9375 864.3125 C457.26570992 865.41023365 457.59391983 866.5079673 457.9320755 867.63896561 C469.11809783 905.05090537 480.33188499 942.45446886 491.55737305 979.85458374 C503.06963417 1018.21074774 514.55232705 1056.57569568 526.02245903 1094.94447708 C527.6698665 1100.4551884 529.31732686 1105.9658839 530.96484375 1111.4765625 C531.43768106 1113.05814022 531.43768106 1113.05814022 531.92007065 1114.67166901 C537.26384459 1132.54514283 542.61990764 1150.41488242 547.98556519 1168.28179932 C556.3718197 1196.20990771 564.71959092 1224.1495297 573.07263184 1252.08758545 C585.02020815 1292.04861781 585.02020815 1292.04861781 597 1332 C605.061921 1358.84810973 613.09386653 1385.70516743 621.125 1412.5625 C621.81706693 1414.87682104 622.50913439 1417.19114192 623.20120239 1419.50546265 C629.8163071 1441.62704158 636.43047585 1463.74890024 643.04319 1485.87119389 C646.6742096 1498.01842062 650.30564469 1510.1655231 653.9375 1522.3125 C654.26570992 1523.41023365 654.59391983 1524.5079673 654.9320755 1525.63896561 C666.11809783 1563.05090537 677.33188499 1600.45446886 688.55737305 1637.85458374 C700.06963417 1676.21074774 711.55232705 1714.57569568 723.02245903 1752.94447708 C724.6698665 1758.4551884 726.31732686 1763.9658839 727.96484375 1769.4765625 C728.43768106 1771.05814022 728.43768106 1771.05814022 728.92007065 1772.67166901 C734.26384459 1790.54514283 739.61990764 1808.41488242 744.98556519 1826.28179932 C753.3718197 1854.20990771 761.71959092 1882.1495297 770.07263184 1910.08758545 C782.02020815 1950.04861781 782.02020815 1950.04861781 794 1990 C802.061921 2016.84810973 810.09386653 2043.70516743 818.125 2070.5625 C818.81706693 2072.87682104 819.50913439 2075.19114192 820.20120239 2077.50546265 C826.8163071 2099.62704158 833.43047585 2121.74890024 840.04319 2143.87119389 C843.6742096 2156.01842062 847.30564469 2168.1655231 850.9375 2180.3125 C851.26570992 2181.41023365 851.59391983 2182.5079673 851.9320755 2183.63896561 C863.11809783 2221.05090537 874.33188499 2258.45446886 885.55737305 2295.85458374 C897.05406302 2334.15886829 908.52131021 2372.47189939 919.97591305 2410.7887888 C921.60107502 2416.22509424 923.22629068 2421.66138364 924.8515625 2427.09765625 C925.16326448 2428.14025793 925.47496647 2429.18285961 925.79611397 2430.25705528 C933.35164082 2455.52823642 940.92707532 2480.79342754 948.51489258 2506.05493164 C950.01111775 2511.03626439 951.5057591 2516.01807171 953 2521 C954.40424953 2518.33012513 955.47762991 2515.74481911 956.34768677 2512.85818481 C956.59653216 2512.03894091 956.84537756 2511.219697 957.10176373 2510.37562752 C957.36869439 2509.48355032 957.63562506 2508.59147312 957.91064453 2507.67236328 C958.19765889 2506.72359251 958.48467325 2505.77482174 958.78038502 2504.79730034 C959.73470013 2501.63935078 960.68378616 2498.4798551 961.6328125 2495.3203125 C962.30379486 2493.09569781 962.97507003 2490.87117141 963.6466217 2488.64672852 C965.44013499 2482.70225552 967.22895086 2476.75637886 969.01665878 2470.81015778 C970.49251819 2465.90302749 971.97095276 2460.99667459 973.44932079 2456.09029961 C981.61916095 2428.97419018 989.77732315 2401.85449473 997.79150391 2374.69189453 C998.05104355 2373.81938049 998.31058319 2372.94686646 998.57798767 2372.0479126 C999.09907629 2370.26169121 999.60199622 2368.47007531 1000.08717346 2366.67376709 C1001.65696366 2360.99897267 1003.54120146 2355.58637984 1005.78330231 2350.14948654 C1018.82472674 2318.13272995 1014.32447753 2295.91114254 1002.99127197 2263.98876953 C1001.04886481 2258.44587389 999.23614576 2252.86133516 997.41601562 2247.27734375 C995.22255998 2240.57683606 993.01602476 2233.88182928 990.74893188 2227.20582581 C985.42748484 2211.52849416 980.50838425 2195.76710384 975.85546875 2179.87890625 C975.52754145 2178.75947947 975.19961414 2177.64005268 974.86174965 2176.48670387 C973.54423597 2171.98428686 972.22884982 2167.48125777 970.91685581 2162.97722912 C967.45710054 2151.10729876 963.90402455 2139.26587314 960.34375 2127.42578125 C959.70373733 2125.29467717 959.06382474 2123.16354303 958.42401123 2121.03237915 C957.12246219 2116.69752102 955.82038987 2112.36282062 954.51785278 2108.02825928 C950.95592921 2096.17456435 947.39800114 2084.31966961 943.83984375 2072.46484375 C943.47540098 2071.25071556 943.11095821 2070.03658737 942.73547173 2068.78566742 C934.49185329 2041.32121305 926.27511422 2013.8487385 918.0625 1986.375 C915.38684594 1977.42444114 912.7110895 1968.47391289 910.03515625 1959.5234375 C909.56218298 1957.94140943 909.56218298 1957.94140943 909.07965469 1956.32742119 C904.06315544 1939.54858716 899.03684578 1922.77273792 894 1906 C885.93810733 1879.15188174 877.90613349 1852.29483262 869.875 1825.4375 C869.18293307 1823.12317896 868.49086561 1820.80885808 867.79879761 1818.49453735 C861.1836929 1796.37295842 854.56952415 1774.25109976 847.95681 1752.12880611 C844.3257904 1739.98157938 840.69435531 1727.8344769 837.0625 1715.6875 C836.73429008 1714.58976635 836.40608017 1713.4920327 836.0679245 1712.36103439 C825.56528308 1677.2346797 815.03923621 1642.11539083 804.5 1607 C793.6280753 1570.77613356 782.77153066 1534.54771898 771.9375 1498.3125 C771.60820873 1497.2111887 771.27891747 1496.1098774 770.93964767 1494.97519302 C765.62721766 1477.20769879 760.31612544 1459.43980472 755.00520325 1441.67185974 C750.02494352 1425.01021472 745.04419159 1408.34871697 740.0625 1391.6875 C739.7332893 1390.5864304 739.4040786 1389.48536079 739.06489182 1388.35092545 C728.56322303 1353.2279518 718.03822493 1318.11202136 707.5 1283 C696.6280753 1246.77613358 685.77151033 1210.54772505 674.9375 1174.3125 C674.60865059 1173.21266155 674.27980118 1172.1128231 673.94098663 1170.97965622 C669.29350704 1155.43600994 664.6470268 1139.89206498 660.00077057 1124.34805298 C654.29293818 1105.25264207 648.58451111 1086.15740905 642.875 1067.0625 C642.54322124 1065.95287022 642.21144249 1064.84324043 641.86960983 1063.6999855 C631.3189496 1028.41396551 620.74521924 993.13491722 610.15704346 957.86013794 C599.47202463 922.26208776 588.81658746 886.65523992 578.17089844 851.04541016 C576.16088507 844.32191685 574.15081001 837.59844199 572.140625 830.875 C571.8207814 829.80521912 571.50093781 828.73543823 571.17140198 827.63323975 C566.1241757 810.75250974 561.06746964 793.87466461 556 777 C547.93810169 750.15188346 539.90611952 723.29483677 531.875 696.4375 C531.18393982 694.12653599 530.49287943 691.81557204 529.80181885 689.50460815 C523.50238998 668.43856431 517.20372598 647.37229179 510.90625 626.30566406 C506.89623149 612.89115699 502.88586649 599.47675356 498.875 586.0625 C498.54422203 584.95620617 498.21344406 583.84991234 497.87264252 582.71009445 C487.32100932 547.4206935 476.74623062 512.13828665 466.15704346 476.86013794 C455.47202463 441.26208776 444.81658746 405.65523992 434.17089844 370.04541016 C432.16088507 363.32191685 430.15081001 356.59844199 428.140625 349.875 C427.6608596 348.27032867 427.6608596 348.27032867 427.17140198 346.63323975 C422.1241757 329.75250974 417.06746964 312.87466461 412 296 C403.93810172 269.15188357 395.90604943 242.29485765 387.875 215.4375 C387.5355196 214.30222492 387.1960392 213.16694984 386.84627151 211.99727249 C382.28216548 196.73412265 377.71851213 181.47083747 373.15496826 166.20751953 C367.77838418 148.22491499 362.4015592 130.24238249 357.02419662 112.26001072 C355.02281981 105.56718674 353.02164907 98.87430121 351.02067947 92.18135548 C349.76746994 87.98975327 348.51402475 83.79822154 347.26057434 79.60669136 C346.35025585 76.56216661 345.44031402 73.51752945 344.53039551 70.47288513 C341.27777933 59.59286171 338.01264364 48.71670815 334.73486328 37.84423828 C333.68537683 34.3594514 332.63608721 30.87460531 331.58685493 27.3897419 C330.58424221 24.06308573 329.57864227 20.73734198 328.57298279 17.41160583 C327.96720659 15.40018141 327.36157226 13.38871426 326.75610352 11.37719727 C326.33515128 9.99020347 326.33515128 9.99020347 325.90569496 8.57518959 C325.52663033 7.31256326 325.52663033 7.31256326 325.13990784 6.02442932 C324.91848901 5.29124764 324.69707018 4.55806597 324.46894169 3.80266666 C324 2 324 2 324 0 C389.34 0 454.68 0 522 0 C534.08008293 40.26694309 546.15892418 80.53400505 558.19763184 120.81329346 C561.31194164 131.23253971 564.42741302 141.65143875 567.54296875 152.0703125 C567.8776202 153.1894529 568.21227165 154.30859329 568.55706406 155.46164703 C574.0213528 173.73461574 579.49657638 192.00425834 584.98226929 210.27081299 C593.36962073 238.20258402 601.7184957 266.14586655 610.07263184 294.08758545 C622.0200908 334.04865296 622.0200908 334.04865296 634 374 C642.71564196 403.02178688 651.39240107 432.05519191 660.07263184 461.08758545 C672.02020815 501.04861781 672.02020815 501.04861781 684 541 C692.061921 567.84810973 700.09386653 594.70516743 708.125 621.5625 C708.81706693 623.87682104 709.50913439 626.19114192 710.20120239 628.50546265 C716.8163071 650.62704158 723.43047585 672.74890024 730.04319 694.87119389 C733.6742096 707.01842062 737.30564469 719.1655231 740.9375 731.3125 C741.26570992 732.41023365 741.59391983 733.5079673 741.9320755 734.63896561 C753.11809783 772.05090537 764.33188499 809.45446886 775.55737305 846.85458374 C787.06963417 885.21074774 798.55232705 923.57569568 810.02245903 961.94447708 C811.6698665 967.4551884 813.31732686 972.9658839 814.96484375 978.4765625 C815.28006863 979.53094765 815.5952935 980.58533279 815.92007065 981.67166901 C821.26384459 999.54514283 826.61990764 1017.41488242 831.98556519 1035.28179932 C840.3718197 1063.20990771 848.71959092 1091.1495297 857.07263184 1119.08758545 C869.0200908 1159.04865296 869.0200908 1159.04865296 881 1199 C889.71564196 1228.02178688 898.39240107 1257.05519191 907.07263184 1286.08758545 C919.02020815 1326.04861781 919.02020815 1326.04861781 931 1366 C939.061921 1392.84810973 947.09386653 1419.70516743 955.125 1446.5625 C955.81706693 1448.87682104 956.50913439 1451.19114192 957.20120239 1453.50546265 C963.8163071 1475.62704158 970.43047585 1497.74890024 977.04319 1519.87119389 C980.6742096 1532.01842062 984.30564469 1544.1655231 987.9375 1556.3125 C988.26570992 1557.41023365 988.59391983 1558.5079673 988.9320755 1559.63896561 C1000.11809783 1597.05090537 1011.33188499 1634.45446886 1022.55737305 1671.85458374 C1034.06754217 1710.20377767 1045.54869324 1748.56159239 1057.01603889 1786.92361164 C1058.66035753 1792.42435716 1060.304753 1797.92507971 1061.94921875 1803.42578125 C1062.26395771 1804.47858717 1062.57869667 1805.53139309 1062.90297318 1806.61610222 C1068.00613972 1823.68533985 1073.12342664 1840.75027797 1078.25 1857.8125 C1090.58043314 1898.8509083 1102.77735033 1939.9293942 1115 1981 C1117.22819545 1975.24134296 1119.1432335 1969.45776397 1120.8972168 1963.5390625 C1121.17167696 1962.62123615 1121.44613712 1961.70340981 1121.72891426 1960.75777054 C1122.63831287 1957.71429202 1123.5437513 1954.66965017 1124.44921875 1951.625 C1125.0972104 1949.45376016 1125.74546573 1947.28259901 1126.39396667 1945.11151123 C1127.77600993 1940.48281176 1129.1563606 1935.85361238 1130.53533936 1931.22399902 C1132.69357195 1923.97828574 1134.85540366 1916.73364987 1137.01806641 1909.48925781 C1137.74634102 1907.04962252 1138.4746125 1904.60998628 1139.20288086 1902.17034912 C1139.56414062 1900.96017876 1139.92540039 1899.75000839 1140.29760742 1898.5031662 C1141.39765952 1894.81764431 1142.49733767 1891.13201102 1143.59692383 1887.4463501 C1148.18163276 1872.08044938 1152.77712646 1856.71782938 1157.38671875 1841.359375 C1157.66896742 1840.41894852 1157.95121609 1839.47852203 1158.24201775 1838.50959778 C1160.63283596 1830.54433687 1163.02503587 1822.57949113 1165.41757202 1814.61474609 C1166.61828091 1810.61757463 1167.81860478 1806.62028772 1169.01870155 1802.62293243 C1169.65589888 1800.50109018 1170.29364644 1798.37941389 1170.93144226 1796.25775146 C1171.30968643 1794.99803528 1171.6879306 1793.73831909 1172.07763672 1792.44042969 C1172.40303436 1791.35751648 1172.72843201 1790.27460327 1173.06369019 1789.15887451 C1173.37267242 1788.11644592 1173.68165466 1787.07401733 1174 1786 C1174.37250381 1784.79713348 1174.74500763 1783.59426697 1175.12879944 1782.35494995 C1177.36588075 1773.74006131 1173.76174156 1765.14789351 1171.21484375 1756.9140625 C1170.81111565 1755.58754856 1170.40816185 1754.26079876 1170.00590515 1752.93383789 C1169.12696253 1750.03928089 1168.24328718 1747.14622685 1167.35601807 1744.25421143 C1165.89524949 1739.49157621 1164.44621869 1734.72541898 1162.99951172 1729.95849609 C1162.62087101 1728.71095519 1162.62087101 1728.71095519 1162.23458099 1727.43821144 C1161.71191194 1725.71601564 1161.18928379 1723.99380742 1160.66669464 1722.27158737 C1159.85001117 1719.58128598 1159.03235149 1716.89128272 1158.21453857 1714.20132446 C1151.61669669 1692.49009696 1145.12811133 1670.74621465 1138.63427353 1649.00370407 C1136.93899639 1643.32849352 1135.24254791 1637.65363317 1133.54614258 1631.97875977 C1130.77124071 1622.69575944 1127.99677652 1613.41262845 1125.22265625 1604.12939453 C1118.53678682 1581.75644395 1111.84704464 1559.3846512 1105.15685272 1537.01299286 C1104.12433769 1533.56028524 1103.09186015 1530.1075664 1102.05938721 1526.65484619 C1094.38946433 1501.00607007 1086.71445979 1475.35886412 1079.01470947 1449.71902466 C1070.62834832 1421.7906461 1062.28049198 1393.85074759 1053.92736816 1365.91241455 C1041.97979185 1325.95138219 1041.97979185 1325.95138219 1030 1286 C1021.938079 1259.15189027 1013.90613347 1232.29483257 1005.875 1205.4375 C1005.18293307 1203.12317896 1004.49086561 1200.80885808 1003.79879761 1198.49453735 C997.1836929 1176.37295842 990.56952415 1154.25109976 983.95681 1132.12880611 C980.3257904 1119.98157938 976.69435531 1107.8344769 973.0625 1095.6875 C972.73429008 1094.58976635 972.40608017 1093.4920327 972.0679245 1092.36103439 C961.56528308 1057.2346797 951.03923621 1022.11539083 940.5 987 C929.6280753 950.77613358 918.77151033 914.54772505 907.9375 878.3125 C907.44422588 876.66274233 907.44422588 876.66274233 906.94098663 874.97965622 C902.29350704 859.43600994 897.6470268 843.89206498 893.00077057 828.34805298 C887.29293818 809.25264207 881.58451111 790.15740905 875.875 771.0625 C875.54322124 769.95287022 875.21144249 768.84324043 874.86960983 767.6999855 C864.3189496 732.41396551 853.74521924 697.13491722 843.15704346 661.86013794 C832.47202463 626.26208776 821.81658746 590.65523992 811.17089844 555.04541016 C809.16088507 548.32191685 807.15081001 541.59844199 805.140625 534.875 C804.8207814 533.80521912 804.50093781 532.73543823 804.17140198 531.63323975 C799.1241757 514.75250974 794.06746964 497.87466461 789 481 C780.93810169 454.15188346 772.90611952 427.29483677 764.875 400.4375 C764.18393982 398.12653599 763.49287943 395.81557204 762.80181885 393.50460815 C756.50238998 372.43856431 750.20372598 351.37229179 743.90625 330.30566406 C739.89623149 316.89115699 735.88586649 303.47675356 731.875 290.0625 C731.54422203 288.95620617 731.21344406 287.84991234 730.87264252 286.71009445 C720.62831863 252.4484739 710.36262521 218.19331314 700.08229065 183.94248199 C689.93097979 150.1211685 679.79761637 116.29451765 669.67950439 82.46325684 C668.64027645 78.98857714 667.60091583 75.51393715 666.56152344 72.03930664 C663.15211488 60.64126862 659.74492115 49.24257701 656.34303665 37.84229088 C654.88119248 32.94505256 653.41505381 28.04914814 651.94230843 23.15517712 C651.34303075 21.16257451 650.74540572 19.1694857 650.14852905 17.17616272 C649.46850099 14.90602051 648.78553185 12.63675594 648.0987854 10.36863708 C647.81401337 9.41497757 647.52924133 8.46131805 647.23583984 7.47875977 C646.99376801 6.67479263 646.75169617 5.8708255 646.50228882 5.04249573 C646 3 646 3 646 0 C711.01 0 776.02 0 843 0 C844.75445101 4.67853604 846.42326864 9.16030546 847.85229492 13.91137695 C848.19057816 15.0314061 848.52886139 16.15143524 848.87739563 17.30540466 C849.24140976 18.52075394 849.60542389 19.73610321 849.98046875 20.98828125 C850.38037571 22.31651651 850.78050411 23.6446851 851.18083191 24.97279358 C852.28495432 28.63858761 853.38549179 32.30544939 854.48534393 35.97252655 C855.4397608 39.15317288 856.3961888 42.33321315 857.35255051 45.51327515 C869.86216151 87.11277357 882.28976487 128.73696343 894.72763348 170.35795212 C901.76339968 193.90178926 908.80282533 217.44453195 915.84314728 240.98700714 C916.87566231 244.43971476 917.90813985 247.8924336 918.94061279 251.34515381 C926.28337665 275.89988654 933.62945963 300.4535888 941 325 C949.06169119 351.84817897 957.09388037 378.70516286 965.125 405.5625 C965.81606018 407.87346401 966.50712057 410.18442796 967.19818115 412.49539185 C973.49761002 433.56143569 979.79627402 454.62770821 986.09375 475.69433594 C990.10376851 489.10884301 994.11413351 502.52324644 998.125 515.9375 C998.45577797 517.04379383 998.78655594 518.15008766 999.12735748 519.28990555 C1009.0668494 552.53203109 1019.02562108 585.76832676 1029 619 C1039.30967793 653.34879015 1049.60150802 687.70286891 1059.875 722.0625 C1060.20641747 723.17089863 1060.53783493 724.27929726 1060.87929535 725.42128372 C1066.25718902 743.40732399 1071.63387005 761.39372671 1077.01040649 779.38017273 C1082.0480302 796.23278683 1087.08608812 813.08527102 1092.125 829.9375 C1092.4565786 831.04646259 1092.7881572 832.15542519 1093.12978363 833.29799271 C1103.06849556 866.53741396 1113.02643015 899.77102233 1123 933 C1133.30967793 967.34879015 1143.60150802 1001.70286891 1153.875 1036.0625 C1154.20641747 1037.17089863 1154.53783493 1038.27929726 1154.87929535 1039.42128372 C1160.25718902 1057.40732399 1165.63387005 1075.39372671 1171.01040649 1093.38017273 C1176.0480302 1110.23278683 1181.08608812 1127.08527102 1186.125 1143.9375 C1186.4565786 1145.04646259 1186.7881572 1146.15542519 1187.12978363 1147.29799271 C1197.06849556 1180.53741396 1207.02643015 1213.77102233 1217 1247 C1227.30967793 1281.34879015 1237.60150802 1315.70286891 1247.875 1350.0625 C1248.20641747 1351.17089863 1248.53783493 1352.27929726 1248.87929535 1353.42128372 C1254.25718902 1371.40732399 1259.63387005 1389.39372671 1265.01040649 1407.38017273 C1270.0480302 1424.23278683 1275.08608812 1441.08527102 1280.125 1457.9375 C1280.4565786 1459.04646259 1280.7881572 1460.15542519 1281.12978363 1461.29799271 C1291.68164248 1496.58804676 1302.25660175 1531.87112002 1312.84597778 1567.14993286 C1323.11771044 1601.37111988 1333.36252154 1635.60030751 1343.59622192 1669.83288574 C1351.88486899 1697.55905437 1360.17826947 1725.28374208 1368.5 1753 C1377.12374313 1781.72331489 1385.7207896 1810.45458831 1394.3125 1839.1875 C1394.65029606 1840.31716061 1394.98809212 1841.44682121 1395.33612442 1842.61071396 C1400.91041617 1861.25239023 1406.4838669 1879.89431792 1412.05723572 1898.53627014 C1417.26693957 1915.96179499 1422.47692149 1933.38723666 1427.6875 1950.8125 C1428.02618229 1951.94514156 1428.36486458 1953.07778313 1428.71380997 1954.24474716 C1437.36290784 1983.16926167 1446.02108979 2012.09100395 1454.70272827 2041.00576782 C1463.50890644 2070.33619556 1472.27988807 2099.67713566 1481.05171204 2129.01785278 C1489.14059732 2156.07414863 1497.23138045 2183.12984157 1505.3521471 2210.17658806 C1506.80574728 2215.01841293 1508.25726611 2219.86085813 1509.70776367 2224.70361328 C1510.51208503 2227.38838292 1511.31654517 2230.07311094 1512.12109375 2232.7578125 C1512.31722448 2233.41235538 1512.51335522 2234.06689827 1512.71542931 2234.74127579 C1515.30828318 2243.39182844 1517.91781665 2252.03718545 1520.54146767 2260.67844772 C1522.45274858 2266.97402665 1524.35695265 2273.27171855 1526.25649071 2279.57085037 C1527.60100685 2284.02744744 1528.95479303 2288.48107767 1530.31601048 2292.93260002 C1531.14616462 2295.65571747 1531.96706238 2298.38156006 1532.78539848 2301.10824966 C1533.34495533 2302.96270273 1533.91558773 2304.81380269 1534.48658752 2306.6647644 C1537.21110624 2315.7960708 1537.21110624 2315.7960708 1537.0378418 2320.13598633 C1536.98623611 2325.40542605 1538.45802716 2329.80551609 1540.03125 2334.80078125 C1540.36511719 2335.8940271 1540.69898438 2336.98727295 1541.04296875 2338.11364746 C1541.98423598 2341.1908917 1542.93510612 2344.2649956 1543.8890686 2347.33832169 C1544.93971989 2350.73342137 1545.97658191 2354.13272022 1547.01367188 2357.53198242 C1547.23208488 2358.24778882 1547.45049789 2358.96359522 1547.67552948 2359.70109272 C1548.13154423 2361.1957334 1548.58750367 2362.69039095 1549.04341125 2364.18506432 C1549.76504353 2366.5492858 1550.48807425 2368.91307635 1551.21130371 2371.27680969 C1557.38292012 2391.46222792 1563.40469276 2411.69262018 1569.44189453 2431.91854858 C1572.56781516 2442.39060357 1575.69819964 2452.86132438 1578.82861328 2463.33203697 C1579.52640343 2465.66603213 1580.22415732 2468.00003813 1580.921875 2470.33405495 C1587.76559889 2493.22740623 1594.62962574 2516.11463499 1601.5 2539 C1612.59089036 2575.94509889 1623.64801319 2612.90024482 1634.69637966 2649.85808086 C1636.38082888 2655.492654 1638.06537067 2661.12719946 1639.75 2666.76171875 C1640.23651126 2668.38893703 1640.23651126 2668.38893703 1640.73285103 2670.0490284 C1645.50173518 2685.99846457 1650.28098909 2701.94473058 1655.07156372 2717.88766479 C1657.09381194 2724.62178685 1659.11037724 2731.35761417 1661.12779236 2738.09318542 C1663.66264889 2746.55294689 1666.20692646 2755.00984816 1668.75439453 2763.46582031 C1671.96680879 2774.12940451 1675.17139536 2784.79531606 1678.36938572 2795.4632349 C1680.16920302 2801.46598522 1681.97245796 2807.4676548 1683.78396606 2813.46688843 C1685.49509128 2819.13400007 1687.19707616 2824.80377863 1688.89237785 2830.47564316 C1689.52706612 2832.59316046 1690.16509453 2834.70967974 1690.80661201 2836.82513809 C1691.69332332 2839.7510322 1692.56802791 2842.68026356 1693.43994141 2845.6105957 C1693.70158113 2846.46379489 1693.96322084 2847.31699408 1694.23278904 2848.19604778 C1694.58495944 2849.39279739 1694.58495944 2849.39279739 1694.94424438 2850.61372375 C1695.25208327 2851.6375489 1695.25208327 2851.6375489 1695.56614113 2852.68205738 C1697.61550611 2863.63103353 1693.42669532 2870.57768226 1690 2882 C1629.94 2882 1569.88 2882 1508 2882 C1474.80715953 2772.1975235 1474.80715953 2772.1975235 1463.44091797 2733.7355957 C1462.72762659 2731.32240251 1462.01424858 2728.90923493 1461.30078125 2726.49609375 C1460.95569519 2725.32889297 1460.61060913 2724.1616922 1460.25506592 2722.9591217 C1457.69830054 2714.32513137 1455.11055466 2705.70075091 1452.50996399 2697.07988739 C1451.86212143 2694.93221068 1451.21475097 2692.78439219 1450.56750488 2690.63653564 C1448.71901024 2684.50354616 1446.8690019 2678.37104676 1445.00927639 2672.24145222 C1444.09297231 2669.21788008 1443.18173668 2666.19277951 1442.26953125 2663.16796875 C1441.93624313 2662.07460709 1441.60295502 2660.98124542 1441.25956726 2659.85475159 C1440.95968399 2658.85749557 1440.65980072 2657.86023956 1440.35083008 2656.83276367 C1440.0883699 2655.96656906 1439.82590973 2655.10037445 1439.55549622 2654.20793152 C1439 2652 1439 2652 1439 2649 C1438.34 2649 1437.68 2649 1437 2649 C1436.88626321 2649.6150024 1436.77252642 2650.23000481 1436.65534306 2650.86364365 C1435.52630633 2656.76021944 1434.10119595 2662.46932696 1432.35913086 2668.21191406 C1432.09906942 2669.08252063 1431.83900799 2669.95312719 1431.5710659 2670.85011578 C1430.70664818 2673.73993399 1429.83575445 2676.62775758 1428.96484375 2679.515625 C1428.33962514 2681.60100112 1427.71481407 2683.68649947 1427.09037781 2685.77210999 C1425.39750876 2691.4221518 1423.69903306 2697.07049408 1421.99951935 2702.71854019 C1420.21764956 2708.64366911 1418.44085767 2714.57032028 1416.66357422 2720.49682617 C1413.8582066 2729.84952575 1411.05040014 2739.20148916 1408.24049282 2748.55282581 C1403.74229706 2763.52292486 1399.2532516 2778.49575444 1394.76734352 2793.46953964 C1391.75317447 2803.53055076 1388.73762844 2813.59114934 1385.72218704 2823.65177917 C1384.9894646 2826.09647839 1384.25678602 2828.54119076 1383.52415085 2830.98591614 C1381.43436967 2837.95917592 1379.34369803 2844.93216738 1377.25156593 2851.90472221 C1376.6169524 2854.02024194 1375.98265629 2856.13585692 1375.34869957 2858.25157356 C1374.48283787 2861.14103761 1373.61583529 2864.0301569 1372.74853516 2866.91918945 C1372.49735396 2867.75833515 1372.24617277 2868.59748085 1371.98738003 2869.46205521 C1371.75327954 2870.2409901 1371.51917906 2871.019925 1371.27798462 2871.82246399 C1370.97806327 2872.82247421 1370.97806327 2872.82247421 1370.6720829 2873.84268665 C1369.82103466 2876.57445938 1368.90481298 2879.28556105 1368 2882 C1308.27 2882 1248.54 2882 1187 2882 C1183.62492814 2872.99980838 1183.62492814 2872.99980838 1182.57243347 2869.51174927 C1182.33089979 2868.7159612 1182.08936611 2867.92017313 1181.84051323 2867.10027027 C1181.58658869 2866.25394378 1181.33266415 2865.40761728 1181.07104492 2864.53564453 C1180.7933835 2863.61795382 1180.51572208 2862.70026312 1180.22964668 2861.7547636 C1179.3106475 2858.71489357 1178.39551326 2855.67387506 1177.48046875 2852.6328125 C1176.82744415 2850.46931551 1176.17421597 2848.30587996 1175.52079773 2846.14250183 C1173.7692745 2840.34055363 1172.02134583 2834.53752847 1170.27431488 2828.73422623 C1169.18620697 2825.12070594 1168.09709087 2821.50749107 1167.00762939 2817.89437866 C1157.90845767 2787.71677738 1148.84590712 2757.52849285 1139.875 2727.3125 C1139.65419769 2726.56881039 1139.43339539 2725.82512077 1139.2059021 2725.05889511 C1135.37749358 2712.16266105 1131.55734393 2699.26398458 1127.74072266 2686.36425781 C1126.03261555 2680.59127586 1124.32185317 2674.81908725 1122.60919189 2669.04745483 C1121.71786392 2666.03995334 1120.83023647 2663.03137765 1119.94287109 2660.02270508 C1119.42434766 2658.27419376 1118.90564349 2656.52573601 1118.38671875 2654.77734375 C1118.15563919 2653.98985748 1117.92455963 2653.20237122 1117.68647766 2652.39102173 C1116.86654995 2648.91638517 1116.86654995 2648.91638517 1115 2646 C1114.44164232 2647.86700849 1113.88328471 2649.734017 1113.32492733 2651.60102558 C1112.80938278 2653.32487676 1112.29383721 2655.04872763 1111.77829075 2656.77257824 C1110.26362366 2661.8372294 1108.74897671 2666.90188658 1107.23435974 2671.96655273 C1104.08009036 2682.51391222 1100.92567215 2693.06122712 1097.77065563 2703.60836315 C1095.92123097 2709.79096472 1094.07191662 2715.97359929 1092.22265625 2722.15625 C1091.84642687 2723.41409616 1091.47019749 2724.67194233 1091.08256721 2725.96790504 C1085.75065377 2743.79454061 1080.42434516 2761.62284247 1075.10190964 2779.45231056 C1072.9289157 2786.7307717 1070.75487915 2794.00892148 1068.58080101 2801.28705883 C1066.50910249 2808.22289908 1064.43909837 2815.15924209 1062.37032986 2822.0959568 C1061.07275023 2826.44527632 1059.77350582 2830.79409729 1058.47383308 2835.14279175 C1057.87923464 2837.13351918 1057.28529818 2839.1244445 1056.69213676 2841.11560059 C1056.4157493 2842.04328247 1056.13936184 2842.97096436 1055.854599 2843.92675781 C1055.61696807 2844.72513565 1055.37933714 2845.52351349 1055.13450527 2846.34608459 C1051.55192978 2858.28126834 1047.7806293 2870.1180222 1044 2882 C984.27 2882 924.54 2882 863 2882 C859.62501943 2873.0000518 859.62501943 2873.0000518 858.63972473 2869.69584656 C858.29914834 2868.56123253 858.29914834 2868.56123253 857.95169163 2867.40369701 C857.71344638 2866.59976167 857.47520113 2865.79582632 857.22973633 2864.9675293 C856.96785743 2864.09216931 856.70597853 2863.21680933 856.4361639 2862.31492329 C855.56547355 2859.402138 854.69876296 2856.48818419 853.83203125 2853.57421875 C853.20754549 2851.48226592 852.58280341 2849.3903896 851.95782471 2847.29858398 C850.6136701 2842.79779247 849.27125975 2838.29648578 847.9302063 2833.79476929 C845.781736 2826.5827942 843.629327 2819.37199829 841.47631836 2812.16137695 C838.84989575 2803.36431956 836.2243611 2794.56699816 833.60006809 2785.76930523 C826.75927653 2762.83623418 819.90435376 2739.90739444 813.04696274 2716.97928238 C812.05631917 2713.66683293 811.0658127 2710.35434251 810.0753479 2707.0418396 C799.21960964 2670.73647167 788.33613452 2634.4394671 777.44262695 2598.14541626 C765.93036583 2559.78925226 754.44767295 2521.42430432 742.97754097 2483.05552292 C741.3301335 2477.5448116 739.68267314 2472.0341161 738.03515625 2466.5234375 C737.56231894 2464.94185978 737.56231894 2464.94185978 737.07992935 2463.32833099 C731.73615541 2445.45485717 726.38009236 2427.58511758 721.01443481 2409.71820068 C712.6281803 2381.79009229 704.28040908 2353.8504703 695.92736816 2325.91241455 C683.9799092 2285.95134704 683.9799092 2285.95134704 672 2246 C663.28435804 2216.97821312 654.60759893 2187.94480809 645.92736816 2158.91241455 C633.97979185 2118.95138219 633.97979185 2118.95138219 622 2079 C613.938079 2052.15189027 605.90613347 2025.29483257 597.875 1998.4375 C597.18293307 1996.12317896 596.49086561 1993.80885808 595.79879761 1991.49453735 C589.1836929 1969.37295842 582.56952415 1947.25109976 575.95681 1925.12880611 C572.3257904 1912.98157938 568.69435531 1900.8344769 565.0625 1888.6875 C564.73429008 1887.58976635 564.40608017 1886.4920327 564.0679245 1885.36103439 C552.88190217 1847.94909463 541.66811501 1810.54553114 530.44262695 1773.14541626 C518.93036583 1734.78925226 507.44767295 1696.42430432 495.97754097 1658.05552292 C494.3301335 1652.5448116 492.68267314 1647.0341161 491.03515625 1641.5234375 C490.56231894 1639.94185978 490.56231894 1639.94185978 490.07992935 1638.32833099 C484.73615541 1620.45485717 479.38009236 1602.58511758 474.01443481 1584.71820068 C465.6281803 1556.79009229 457.28040908 1528.8504703 448.92736816 1500.91241455 C436.97979185 1460.95138219 436.97979185 1460.95138219 425 1421 C416.938079 1394.15189027 408.90613347 1367.29483257 400.875 1340.4375 C400.18293307 1338.12317896 399.49086561 1335.80885808 398.79879761 1333.49453735 C392.1836929 1311.37295842 385.56952415 1289.25109976 378.95681 1267.12880611 C375.3257904 1254.98157938 371.69435531 1242.8344769 368.0625 1230.6875 C367.73429008 1229.58976635 367.40608017 1228.4920327 367.0679245 1227.36103439 C355.88190217 1189.94909463 344.66811501 1152.54553114 333.44262695 1115.14541626 C321.93036583 1076.78925226 310.44767295 1038.42430432 298.97754097 1000.05552292 C297.3301335 994.5448116 295.68267314 989.0341161 294.03515625 983.5234375 C293.71993137 982.46905235 293.4047065 981.41466721 293.07992935 980.32833099 C287.73615541 962.45485717 282.38009236 944.58511758 277.01443481 926.71820068 C268.6281803 898.79009229 260.28040908 870.8504703 251.92736816 842.91241455 C239.97979185 802.95138219 239.97979185 802.95138219 228 763 C219.938079 736.15189027 211.90613347 709.29483257 203.875 682.4375 C203.18293307 680.12317896 202.49086561 677.80885808 201.79879761 675.49453735 C195.1836929 653.37295842 188.56952415 631.25109976 181.95681 609.12880611 C178.3257904 596.98157938 174.69435531 584.8344769 171.0625 572.6875 C170.73429008 571.58976635 170.40608017 570.4920327 170.0679245 569.36103439 C158.88190217 531.94909463 147.66811501 494.54553114 136.44262695 457.14541626 C124.93036583 418.78925226 113.44767295 380.42430432 101.97754097 342.05552292 C100.3301335 336.5448116 98.68267314 331.0341161 97.03515625 325.5234375 C96.71993137 324.46905235 96.4047065 323.41466721 96.07992935 322.32833099 C90.73615541 304.45485717 85.38009236 286.58511758 80.01443481 268.71820068 C71.27311808 239.60765544 62.57269919 210.4848673 53.86651611 181.36380005 C46.39152965 156.36108711 38.91411947 131.35915651 31.4052124 106.36660767 C24.447938 83.20901131 17.53110196 60.03948893 10.63440704 36.8637886 C9.8794249 34.32736581 9.12395353 31.7910892 8.36834717 29.25485229 C7.19005825 25.2995394 6.01317079 21.34381228 4.8374176 17.3877449 C4.40100122 15.92006511 3.96412611 14.45252164 3.52677917 12.98511887 C2.92786802 10.97523907 2.33064764 8.9648648 1.73388672 6.9543457 C1.22908279 5.25723198 1.22908279 5.25723198 0.71408081 3.52583313 C-0 1 -0 1 0 0 Z M1276 2108 C1273.57996649 2113.35004434 1271.76350556 2118.71960598 1270.1027832 2124.34741211 C1269.82832021 2125.26510093 1269.55385721 2126.18278975 1269.27107716 2127.12828732 C1268.36037764 2130.17681455 1267.45560054 2133.22706656 1266.55078125 2136.27734375 C1265.90295708 2138.44991174 1265.25474482 2140.62236404 1264.60617065 2142.79470825 C1263.22337697 2147.42901222 1261.8431322 2152.06406448 1260.4649353 2156.69973755 C1258.30724513 2163.95720092 1256.14406235 2171.21301907 1253.97973633 2178.46850586 C1251.78521981 2185.82592264 1249.59093499 2193.18340755 1247.39854431 2200.54145813 C1240.94420852 2222.20208177 1234.45720635 2243.85281866 1227.95699692 2265.4997139 C1226.69598139 2269.69948778 1225.43553417 2273.89943221 1224.17504883 2278.09936523 C1222.46231125 2283.80600306 1220.74928534 2289.51255416 1219.03588867 2295.21899414 C1218.6900473 2296.39229279 1218.34420593 2297.56559143 1217.98788452 2298.77444458 C1217.37036951 2300.7907014 1216.71105596 2302.79516191 1215.99087524 2304.77706909 C1212.69900066 2314.06817647 1215.95655343 2322.37562694 1218.75195312 2331.48510742 C1219.02310283 2332.38239532 1219.29425253 2333.27968321 1219.57361889 2334.20416164 C1220.47179254 2337.17260817 1221.37655179 2340.13900487 1222.28125 2343.10546875 C1222.92580917 2345.23174635 1223.56990709 2347.35816381 1224.21357727 2349.48471069 C1225.58826674 2354.02356181 1226.96569745 2358.56156781 1228.34536743 2363.09890747 C1231.61396065 2373.84895076 1234.86903296 2384.60309067 1238.12497902 2395.35696983 C1238.86408492 2397.79784221 1239.60337301 2400.23865943 1240.34284019 2402.67942238 C1245.52820151 2419.79478887 1250.68431828 2436.9185964 1255.80078125 2454.0546875 C1256.25472826 2455.57499164 1256.25472826 2455.57499164 1256.71784592 2457.12600899 C1259.58482783 2466.72990973 1262.44731271 2476.33514763 1265.30737019 2485.94111252 C1266.34393808 2489.42172092 1267.3815255 2492.90202494 1268.41927147 2496.38228226 C1269.11843554 2498.72882357 1269.81591187 2501.0758616 1270.51325989 2503.42294312 C1272.56704415 2510.32052423 1274.66463687 2517.1911847 1277 2524 C1278.35806956 2521.40875024 1279.42811327 2518.90709982 1280.26934814 2516.10665894 C1280.50109489 2515.34160538 1280.73284164 2514.57655182 1280.97161102 2513.78831482 C1281.21977821 2512.95566605 1281.4679454 2512.12301727 1281.72363281 2511.26513672 C1281.99137764 2510.37735031 1282.25912247 2509.4895639 1282.53498077 2508.57487488 C1283.42788413 2505.61085939 1284.31552387 2502.64529472 1285.203125 2499.6796875 C1285.83534021 2497.57674525 1286.4678538 2495.47389268 1287.10064697 2493.37112427 C1288.80211197 2487.71355822 1290.49888304 2482.05459439 1292.19467163 2476.39532471 C1293.60043309 2471.70603848 1295.00893785 2467.0175782 1296.41743469 2462.32911301 C1305.82981562 2430.99618765 1315.19773301 2399.64996744 1324.49119949 2368.28155327 C1324.91595299 2366.84799666 1325.34087426 2365.41448976 1325.76597214 2363.98103523 C1326.76177474 2360.6229317 1327.75558462 2357.26427378 1328.74432373 2353.90408325 C1330.48999825 2347.99146784 1332.27358733 2342.09868286 1334.17578125 2336.234375 C1334.51146118 2335.18531982 1334.84714111 2334.13626465 1335.19299316 2333.05541992 C1335.80804126 2331.1444138 1336.43682304 2329.23773716 1337.08337402 2327.3371582 C1337.3529895 2326.49499756 1337.62260498 2325.65283691 1337.90039062 2324.78515625 C1338.13842407 2324.07238525 1338.37645752 2323.35961426 1338.6217041 2322.62524414 C1339.57769298 2315.99100832 1337.78312901 2309.44351283 1335.82397461 2303.13916016 C1335.60147852 2302.40046755 1335.37898243 2301.66177494 1335.14974403 2300.90069771 C1334.40796712 2298.44452279 1333.65510396 2295.99189143 1332.90234375 2293.5390625 C1332.36245715 2291.75846323 1331.82332968 2289.97763365 1331.28489685 2288.19659424 C1330.12192594 2284.35477435 1328.95419916 2280.51444571 1327.78265381 2276.67523193 C1324.94381665 2267.37197781 1322.12675048 2258.06211932 1319.30688477 2248.75310135 C1318.30499197 2245.44670618 1317.30207021 2242.14062428 1316.29907227 2238.83456421 C1311.17994252 2221.95121952 1306.12382336 2205.04953274 1301.08984375 2188.140625 C1300.35235561 2185.66501536 1299.61482229 2183.18941917 1298.87724304 2180.71383667 C1295.99210942 2171.0287216 1293.10716578 2161.34355706 1290.23165894 2151.65557861 C1288.5443775 2145.97117715 1286.85245111 2140.28817829 1285.15715218 2134.60616302 C1284.53131867 2132.5052182 1283.90730951 2130.40372899 1283.28521538 2128.30167389 C1282.43481785 2125.42872528 1281.57828396 2122.5576767 1280.72021484 2119.68701172 C1280.47211028 2118.8431724 1280.22400572 2117.99933308 1279.96838284 2117.12992287 C1279.73690579 2116.36008757 1279.50542875 2115.59025227 1279.26693726 2114.79708862 C1278.97028451 2113.79883969 1278.97028451 2113.79883969 1278.66763878 2112.78042412 C1277.96479919 2110.70102284 1277.96479919 2110.70102284 1276 2108 Z " fill="#106B98" transform="translate(0,0)"/>
<path d="M0 0 C272.91 0 545.82 0 827 0 C818.97739839 28.65214861 818.97739839 28.65214861 815.62890625 39.6484375 C815.23423707 40.95223098 814.83984498 42.25610837 814.44569397 43.56005859 C813.59954769 46.35803869 812.75202958 49.15559759 811.90338135 51.95281982 C809.47897094 59.94547505 807.06629675 67.94168167 804.65234375 75.9375 C804.26091187 77.23367815 804.26091187 77.23367815 803.86157227 78.55604172 C797.07914579 101.01782752 790.35893144 123.49820642 783.63998413 145.97904587 C782.61914189 149.39460019 781.59816532 152.81011433 780.57714844 156.22561646 C776.7543614 169.0137108 772.9323681 181.80204222 769.11078072 194.59049511 C763.09399295 214.72472805 757.07544753 234.85843553 751.05544281 254.99170685 C750.39265471 257.20833216 749.72987907 259.4249612 749.06711578 261.64159393 C737.88127161 299.05263037 726.66785155 336.45534662 715.44262695 373.85458374 C704.96246065 408.77204895 694.50437364 443.6960649 684.0625 478.625 C683.72137177 479.76610229 683.38024353 480.90720459 683.02877808 482.08288574 C682.3450315 484.3700826 681.6612858 486.65727971 680.97754097 488.94447708 C679.3301335 494.4551884 677.68267314 499.9658839 676.03515625 505.4765625 C675.71993137 506.53094765 675.4047065 507.58533279 675.07992935 508.67166901 C669.73615541 526.54514283 664.38009236 544.41488242 659.01443481 562.28179932 C650.98714561 589.01447275 642.99549736 615.75780474 635 642.5 C617.92006647 699.62651718 617.92006647 699.62651718 610 726 C601.938079 752.84810973 593.90613347 779.70516743 585.875 806.5625 C585.18293307 808.87682104 584.49086561 811.19114192 583.79879761 813.50546265 C577.1836929 835.62704158 570.56952415 857.74890024 563.95681 879.87119389 C560.3257904 892.01842062 556.69435531 904.1655231 553.0625 916.3125 C552.73429008 917.41023365 552.40608017 918.5079673 552.0679245 919.63896561 C540.88190217 957.05090537 529.66811501 994.45446886 518.44262695 1031.85458374 C507.96246065 1066.77204895 497.50437364 1101.6960649 487.0625 1136.625 C486.72137177 1137.76610229 486.38024353 1138.90720459 486.02877808 1140.08288574 C485.3450315 1142.3700826 484.6612858 1144.65727971 483.97754097 1146.94447708 C482.3301335 1152.4551884 480.68267314 1157.9658839 479.03515625 1163.4765625 C478.71993137 1164.53094765 478.4047065 1165.58533279 478.07992935 1166.67166901 C472.73615541 1184.54514283 467.38009236 1202.41488242 462.01443481 1220.28179932 C453.98714561 1247.01447275 445.99549736 1273.75780474 438 1300.5 C429.35149158 1329.42629319 420.70234451 1358.3523424 412.01855469 1387.26806641 C403.98989417 1414.00531809 395.99686639 1440.7532258 388 1467.5 C370.92006647 1524.62651718 370.92006647 1524.62651718 363 1551 C354.938079 1577.84810973 346.90613347 1604.70516743 338.875 1631.5625 C338.18293307 1633.87682104 337.49086561 1636.19114192 336.79879761 1638.50546265 C330.1836929 1660.62704158 323.56952415 1682.74890024 316.95681 1704.87119389 C313.3257904 1717.01842062 309.69435531 1729.1655231 306.0625 1741.3125 C305.73429008 1742.41023365 305.40608017 1743.5079673 305.0679245 1744.63896561 C293.88190217 1782.05090537 282.66811501 1819.45446886 271.44262695 1856.85458374 C260.96246065 1891.77204895 250.50437364 1926.6960649 240.0625 1961.625 C239.72137177 1962.76610229 239.38024353 1963.90720459 239.02877808 1965.08288574 C238.3450315 1967.3700826 237.6612858 1969.65727971 236.97754097 1971.94447708 C235.3301335 1977.4551884 233.68267314 1982.9658839 232.03515625 1988.4765625 C231.71993137 1989.53094765 231.4047065 1990.58533279 231.07992935 1991.67166901 C225.73615541 2009.54514283 220.38009236 2027.41488242 215.01443481 2045.28179932 C206.98714561 2072.01447275 198.99549736 2098.75780474 191 2125.5 C173.92006647 2182.62651718 173.92006647 2182.62651718 166 2209 C158.28416128 2234.69557362 150.59572106 2260.39932169 142.90929413 2286.10370636 C141.87618235 2289.5585461 140.84303311 2293.01337465 139.80987549 2296.46820068 C133.46415712 2317.68813794 127.11902968 2338.90825176 120.77734375 2360.12939453 C120.43094219 2361.28855031 120.08454063 2362.44770609 119.72764206 2363.6419878 C117.64086883 2370.62492982 117.64086883 2370.62492982 115.5541153 2377.60787773 C109.88796848 2396.56826608 104.21580143 2415.52684749 98.53973389 2434.48426819 C95.23605169 2445.51953063 91.93794139 2456.55642282 88.64896965 2467.59607887 C86.53767815 2474.6819592 84.4213863 2481.76633123 82.30073738 2488.84941673 C81.10292058 2492.85099612 79.90775263 2496.85331952 78.71942139 2500.85772705 C77.64451275 2504.47990015 76.5626787 2508.09992373 75.47498322 2511.71827698 C74.89942776 2513.6398404 74.33164618 2515.56372693 73.76409912 2517.4876709 C73.25656097 2519.16850769 73.25656097 2519.16850769 72.73876953 2520.88330078 C72.44890167 2521.85518341 72.15903381 2522.82706604 71.86038208 2523.82839966 C71 2526 71 2526 69 2527 C59.13922859 2494.99134088 49.35361232 2462.96180444 39.75 2430.875 C37.97035376 2424.92959715 36.19056196 2418.98423797 34.41015625 2413.0390625 C34.07567474 2411.92211187 34.07567474 2411.92211187 33.73443604 2410.78259659 C28.58636333 2393.59469235 23.38988219 2376.42152938 18.1875 2359.25 C16.25239103 2352.86204372 14.31751116 2346.47401806 12.3828125 2340.0859375 C12.13292131 2339.26086449 11.88303013 2338.43579147 11.62556648 2337.58571625 C4.58958877 2314.35332934 -2.42337276 2291.11399102 -9.4375 2267.875 C-10.11927064 2265.61625096 -10.80104352 2263.35750259 -11.4828186 2261.09875488 C-14.24504336 2251.94733776 -17.00719063 2242.79589725 -19.7691803 2233.64440918 C-24.523877 2217.89035382 -29.27922782 2202.13649606 -34.03515625 2186.3828125 C-34.36410826 2185.29318081 -34.69306026 2184.20354912 -35.03198051 2183.08089828 C-36.69099832 2177.58552506 -38.35002828 2172.0901555 -40.00906372 2166.5947876 C-43.00592277 2156.66800869 -46.00267364 2146.74119712 -48.99943352 2136.81438828 C-50.66628466 2131.2929242 -52.33314268 2125.77146221 -54 2120.25 C-54.6666667 2118.04166668 -55.33333337 2115.83333334 -56 2113.625 C-56.33 2112.531875 -56.66 2111.43875 -57 2110.3125 C-124.0000003 1888.374999 -124.0000003 1888.374999 -125.00000286 1885.06249046 C-125.66665995 1882.85418891 -126.33331708 1880.64588736 -126.99997425 1878.43758583 C-128.66678786 1872.91626644 -130.33360071 1867.39494681 -132.00041199 1861.87362671 C-134.99865647 1851.94193061 -137.99690625 1842.01023612 -140.9951849 1832.07855034 C-142.65955416 1826.56538888 -144.3239189 1821.05222605 -145.98828125 1815.5390625 C-146.31791681 1814.44715229 -146.64755238 1813.35524208 -146.9871769 1812.23024368 C-151.68883015 1796.65609302 -156.39022702 1781.08186497 -161.09147263 1765.50759125 C-164.12342503 1755.46337704 -167.15544133 1745.41918213 -170.1875 1735.375 C-170.52006805 1734.27331482 -170.85263611 1733.17162964 -171.19528198 1732.03656006 C-180.95988062 1699.68993977 -190.72824288 1667.34445842 -200.5 1635 C-213.98065121 1590.379124 -227.45280695 1545.75568569 -240.92300415 1501.13165283 C-245.61902789 1485.57468298 -250.31528017 1470.01778213 -255.01171875 1454.4609375 C-255.34136942 1453.36897694 -255.67102009 1452.27701637 -256.01066017 1451.15196609 C-257.67477723 1445.63961947 -259.33889832 1440.12727406 -261.00302124 1434.6149292 C-264.00197418 1424.68100287 -267.00089122 1414.74706571 -269.99981117 1404.81312943 C-271.66653933 1399.29208585 -273.33326978 1393.77104296 -275 1388.25 C-275.66666668 1386.04166667 -276.33333334 1383.83333334 -277 1381.625 C-277.33 1380.531875 -277.66 1379.43875 -278 1378.3125 C-279.5 1373.34375 -279.5 1373.34375 -281 1368.375 C-281.3300085 1367.28184699 -281.66001699 1366.18869398 -282.00002575 1365.06241512 C-282.66660689 1362.85436481 -283.33318773 1360.6463144 -283.99976826 1358.43826389 C-285.6677409 1352.91309965 -287.33571891 1347.38793702 -289.00370789 1341.86277771 C-291.98811859 1331.97699557 -294.97249459 1322.09120297 -297.95666409 1312.20534801 C-299.60259275 1306.75277593 -301.24855366 1301.30021357 -302.89453125 1295.84765625 C-303.22125132 1294.76534288 -303.54797138 1293.68302952 -303.88459206 1292.56791878 C-308.48582155 1277.32582412 -313.0885799 1262.08419177 -317.69235229 1246.84286499 C-320.28568399 1238.25731331 -322.87861794 1229.67164153 -325.47146416 1221.08594322 C-327.58148788 1214.09915028 -329.69203916 1207.112517 -331.80299664 1200.12600613 C-333.10836519 1195.80523725 -334.41321856 1191.48431291 -335.71793556 1187.16334724 C-336.31799687 1185.17643823 -336.91826711 1183.1895923 -337.51877403 1181.20281792 C-337.8001755 1180.27176798 -338.08157696 1179.34071804 -338.37150574 1178.38145447 C-338.78174343 1177.02459329 -338.78174343 1177.02459329 -339.20026875 1175.64032078 C-339.72742787 1173.89144964 -340.25226507 1172.14187661 -340.77456188 1170.3915472 C-341.98858923 1166.3236396 -343.22850016 1162.2691284 -344.53994751 1158.23147583 C-349.0471372 1144.16130834 -349.0471372 1144.16130834 -347 1137 C-346.74489655 1136.03569061 -346.48979309 1135.07138123 -346.22695923 1134.07785034 C-345.24163729 1130.54973889 -344.17112689 1127.05603823 -343.08203125 1123.55859375 C-342.67268928 1122.2235288 -342.26407414 1120.88824081 -341.85612488 1119.55274963 C-340.97849821 1116.68515446 -340.09586884 1113.81916661 -339.20922852 1110.9543457 C-337.78591579 1106.35543136 -336.37369072 1101.75315629 -334.96289062 1097.15039062 C-332.97766323 1090.67692757 -330.98766047 1084.204951 -328.99462891 1077.73388672 C-326.13350816 1068.44233305 -323.28831485 1059.14596053 -320.44921875 1049.84765625 C-320.11153095 1048.74178036 -320.11153095 1048.74178036 -319.76702118 1047.61356354 C-318.85911009 1044.6401763 -317.95127358 1041.66676632 -317.04360199 1038.69330597 C-315.44288262 1033.44962461 -313.8407236 1028.20638471 -312.23779297 1022.96337891 C-305.95661893 1002.41746438 -299.69116813 981.86680268 -293.4375 961.3125 C-293.22164623 960.6030637 -293.00579247 959.8936274 -292.78339767 959.16269302 C-289.52154373 948.44201476 -286.26065964 937.72104156 -283 927 C-279.5213879 915.56233125 -276.0424154 904.12477229 -272.5625 892.6875 C-272.3467268 891.9783054 -272.1309536 891.26911079 -271.90864182 890.53842545 C-264.49633267 866.17651876 -257.06033407 841.82190038 -249.61502075 817.47006226 C-242.89347413 795.4850581 -236.18943309 773.4947958 -229.5 751.5 C-222.12133532 727.23901695 -214.72168989 702.9845279 -207.30731201 678.73443604 C-200.3548197 655.99469452 -193.41909588 633.24992497 -186.5 610.5 C-179.12133532 586.23901695 -171.72168989 561.9845279 -164.30731201 537.73443604 C-157.3548197 514.99469452 -150.41909588 492.24992497 -143.5 469.5 C-136.12133532 445.23901695 -128.72168989 420.9845279 -121.30731201 396.73443604 C-114.3548197 373.99469452 -107.41909588 351.24992497 -100.5 328.5 C-93.58084209 305.74987105 -86.64498535 283.00491962 -79.69248581 260.26495743 C-72.25908139 235.95204831 -64.83780037 211.63550703 -57.4375 187.3125 C-57.22164623 186.6030637 -57.00579247 185.8936274 -56.78339767 185.16269302 C-53.52154373 174.44201476 -50.26065964 163.72104156 -47 153 C-40.00444912 129.99864444 -33.00627297 106.99809217 -26 84 C-25.63795723 82.81151962 -25.63795723 82.81151962 -25.26860046 81.59902954 C-21.98301895 70.8135891 -18.6951593 60.02884665 -15.40426636 49.24502563 C-14.43607264 46.0721993 -13.46858492 42.89915908 -12.5017395 39.72592163 C-11.3689826 36.00829459 -10.2347034 32.29113531 -9.09929276 28.57431793 C-8.68506892 27.21747131 -8.27135712 25.86046824 -7.85822678 24.50328827 C-7.28707061 22.62731697 -6.71375618 20.75200321 -6.14038086 18.87670898 C-5.82177597 17.83240219 -5.50317108 16.7880954 -5.1749115 15.71214294 C-3.51101279 10.45504072 -1.74372253 5.2311676 0 0 Z " fill="#083049" transform="translate(1723,0)"/>
<path d="M0 0 C65.34 0 130.68 0 198 0 C214.08768787 52.85954587 214.08768787 52.85954587 219.2421875 70.13671875 C219.85109811 72.17431675 220.46011634 74.21188259 221.06922913 76.24942017 C222.34668982 80.52339289 223.62346624 84.79756908 224.89962769 89.07192993 C226.95209412 95.94635898 229.0063463 102.82025375 231.06079102 109.6940918 C233.94589019 119.34764648 236.83037106 129.00138567 239.71435547 138.65527344 C246.12252122 160.10569234 252.53450648 181.55496918 258.94812775 203.00375748 C259.60919203 205.21454466 260.27023829 207.42533722 260.93126678 209.6361351 C272.11770913 247.04897358 283.33160284 284.45352882 294.55737305 321.85458374 C306.06963417 360.21074774 317.55232705 398.57569568 329.02245903 436.94447708 C330.6698665 442.4551884 332.31732686 447.9658839 333.96484375 453.4765625 C334.28006863 454.53094765 334.5952935 455.58533279 334.92007065 456.67166901 C340.26384459 474.54514283 345.61990764 492.41488242 350.98556519 510.28179932 C359.3718197 538.20990771 367.71959092 566.1495297 376.07263184 594.08758545 C388.02020815 634.04861781 388.02020815 634.04861781 400 674 C408.061921 700.84810973 416.09386653 727.70516743 424.125 754.5625 C424.81706693 756.87682104 425.50913439 759.19114192 426.20120239 761.50546265 C432.8163071 783.62704158 439.43047585 805.74890024 446.04319 827.87119389 C449.6742096 840.01842062 453.30564469 852.1655231 456.9375 864.3125 C457.26570992 865.41023365 457.59391983 866.5079673 457.9320755 867.63896561 C469.11809783 905.05090537 480.33188499 942.45446886 491.55737305 979.85458374 C503.06963417 1018.21074774 514.55232705 1056.57569568 526.02245903 1094.94447708 C527.6698665 1100.4551884 529.31732686 1105.9658839 530.96484375 1111.4765625 C531.43768106 1113.05814022 531.43768106 1113.05814022 531.92007065 1114.67166901 C537.26384459 1132.54514283 542.61990764 1150.41488242 547.98556519 1168.28179932 C556.3718197 1196.20990771 564.71959092 1224.1495297 573.07263184 1252.08758545 C585.02020815 1292.04861781 585.02020815 1292.04861781 597 1332 C605.061921 1358.84810973 613.09386653 1385.70516743 621.125 1412.5625 C621.81706693 1414.87682104 622.50913439 1417.19114192 623.20120239 1419.50546265 C629.8163071 1441.62704158 636.43047585 1463.74890024 643.04319 1485.87119389 C646.6742096 1498.01842062 650.30564469 1510.1655231 653.9375 1522.3125 C654.26570992 1523.41023365 654.59391983 1524.5079673 654.9320755 1525.63896561 C666.11809783 1563.05090537 677.33188499 1600.45446886 688.55737305 1637.85458374 C700.06963417 1676.21074774 711.55232705 1714.57569568 723.02245903 1752.94447708 C724.6698665 1758.4551884 726.31732686 1763.9658839 727.96484375 1769.4765625 C728.43768106 1771.05814022 728.43768106 1771.05814022 728.92007065 1772.67166901 C734.26384459 1790.54514283 739.61990764 1808.41488242 744.98556519 1826.28179932 C753.3718197 1854.20990771 761.71959092 1882.1495297 770.07263184 1910.08758545 C782.02020815 1950.04861781 782.02020815 1950.04861781 794 1990 C802.061921 2016.84810973 810.09386653 2043.70516743 818.125 2070.5625 C818.81706693 2072.87682104 819.50913439 2075.19114192 820.20120239 2077.50546265 C826.8163071 2099.62704158 833.43047585 2121.74890024 840.04319 2143.87119389 C843.6742096 2156.01842062 847.30564469 2168.1655231 850.9375 2180.3125 C851.26570992 2181.41023365 851.59391983 2182.5079673 851.9320755 2183.63896561 C863.11809783 2221.05090537 874.33188499 2258.45446886 885.55737305 2295.85458374 C897.05406302 2334.15886829 908.52131021 2372.47189939 919.97591305 2410.7887888 C921.60107502 2416.22509424 923.22629068 2421.66138364 924.8515625 2427.09765625 C925.16326448 2428.14025793 925.47496647 2429.18285961 925.79611397 2430.25705528 C933.35164082 2455.52823642 940.92707532 2480.79342754 948.51489258 2506.05493164 C950.01111775 2511.03626439 951.5057591 2516.01807171 953 2521 C954.40424953 2518.33012513 955.47762991 2515.74481911 956.34768677 2512.85818481 C956.59653216 2512.03894059 956.84537756 2511.21969637 957.10176373 2510.37562656 C957.36869439 2509.48354968 957.63562506 2508.5914728 957.91064453 2507.67236328 C958.34116607 2506.24921137 958.34116607 2506.24921137 958.78038502 2504.79730892 C959.73470285 2501.6393573 960.68378994 2498.47985912 961.6328125 2495.3203125 C962.3037958 2493.09565232 962.97507095 2490.87108014 963.6466217 2488.64659119 C965.44011225 2482.70208977 967.22891252 2476.7561867 969.01665878 2470.8099556 C970.49242633 2465.90339991 971.97089887 2460.99766104 973.44932079 2456.09190464 C981.69272325 2428.73605003 989.90619037 2401.37180394 997.98486328 2373.96679688 C1003.88698011 2353.94672525 1009.92931519 2333.96952398 1016 2314 C1018 2315 1018 2315 1018.88208008 2317.23046875 C1019.17493896 2318.20628906 1019.46779785 2319.18210937 1019.76953125 2320.1875 C1020.09840332 2321.27015137 1020.42727539 2322.35280273 1020.76611328 2323.46826172 C1021.1114209 2324.63373535 1021.45672852 2325.79920898 1021.8125 2327 C1022.17069824 2328.1873877 1022.52889648 2329.37477539 1022.89794922 2330.59814453 C1023.94062585 2334.06291619 1024.9725384 2337.53068974 1026 2341 C1026.25217285 2341.84916992 1026.5043457 2342.69833984 1026.76416016 2343.57324219 C1027.78387935 2347.01244272 1028.7942589 2350.45421526 1029.796875 2353.8984375 C1030.64492853 2356.80464087 1031.51198565 2359.70445988 1032.390625 2362.6015625 C1035.23227812 2371.97514323 1037.95344216 2381.37127227 1040.5625 2390.8125 C1042.77160261 2398.79315361 1045.13189149 2406.65685376 1047.82421875 2414.48828125 C1049.57261378 2419.71023187 1051.09189503 2424.99332734 1052.62367249 2430.2820282 C1053.9742488 2434.92727696 1055.35851993 2439.56195901 1056.75170898 2444.19458008 C1057.0105786 2445.0564005 1057.26944822 2445.91822092 1057.53616238 2446.80615711 C1060.24197301 2455.81152407 1062.95401538 2464.81501671 1065.66703987 2473.81821251 C1066.87542685 2477.82847024 1068.08338772 2481.8388563 1069.29138088 2485.84923267 C1071.52373793 2493.26035239 1073.75625198 2500.6714247 1075.98950195 2508.08227539 C1077.55953264 2513.29234878 1079.12901365 2518.50258749 1080.69814873 2523.71293068 C1081.28831695 2525.67223873 1081.8786793 2527.63148832 1082.46925545 2529.59067345 C1085.67224594 2540.21664043 1088.85345645 2550.84820305 1091.97264099 2561.49909973 C1093.29506968 2566.00550003 1094.64372543 2570.50369719 1096 2575 C1098.06050249 2581.84891958 1100.09636656 2588.70444108 1102.10546875 2595.56860352 C1103.45868516 2600.18365328 1104.83877914 2604.78999397 1106.23217773 2609.39306641 C1107.24818034 2612.75992782 1108.24937384 2616.13112795 1109.25048828 2619.50244141 C1109.99380399 2621.97935335 1110.75985312 2624.4484577 1111.52734375 2626.91796875 C1111.99830051 2628.48670785 1112.46839006 2630.05570764 1112.9375 2631.625 C1113.27297852 2632.67095337 1113.27297852 2632.67095337 1113.61523438 2633.73803711 C1116.1207916 2642.30855267 1114.13980276 2650.55797395 1111.54858398 2658.89233398 C1111.29682152 2659.72873382 1111.04505905 2660.56513365 1110.78566742 2661.42687893 C1109.94780971 2664.20265882 1109.09692448 2666.97426551 1108.24609375 2669.74609375 C1107.63892061 2671.74901877 1107.03262602 2673.75221029 1106.42713928 2675.75564575 C1105.12381403 2680.06210536 1103.81488307 2684.36680451 1102.50146484 2688.67019653 C1100.41649793 2695.50195265 1098.34364423 2702.33734263 1096.2734375 2709.17358398 C1095.56137731 2711.52467542 1094.8493106 2713.87576488 1094.13723755 2716.22685242 C1093.78040012 2717.40511786 1093.4235627 2718.58338329 1093.05591202 2719.79735374 C1091.9550884 2723.43063516 1090.85302697 2727.06353922 1089.7507019 2730.69636536 C1084.4810273 2748.0690787 1079.25914038 2765.45570524 1074.06640625 2782.8515625 C1073.7043704 2784.06416056 1073.34233456 2785.27675861 1072.96932793 2786.52610207 C1069.78951829 2797.17752752 1066.61242876 2807.8297633 1063.43746948 2818.4826355 C1061.79771102 2823.9841378 1060.15604861 2829.48506901 1058.5132122 2834.98565292 C1057.91557063 2836.98811292 1057.31865348 2838.99078931 1056.72258186 2840.99371719 C1056.44457678 2841.92787334 1056.16657169 2842.8620295 1055.88014221 2843.82449341 C1055.64104409 2844.62875322 1055.40194597 2845.43301304 1055.15560246 2846.26164436 C1051.56839792 2858.22614854 1047.78961864 2870.08977 1044 2882 C984.27 2882 924.54 2882 863 2882 C859.62501943 2873.0000518 859.62501943 2873.0000518 858.63972473 2869.69584656 C858.29914834 2868.56123253 858.29914834 2868.56123253 857.95169163 2867.40369701 C857.71344638 2866.59976167 857.47520113 2865.79582632 857.22973633 2864.9675293 C856.96785743 2864.09216931 856.70597853 2863.21680933 856.4361639 2862.31492329 C855.56547355 2859.402138 854.69876296 2856.48818419 853.83203125 2853.57421875 C853.20754549 2851.48226592 852.58280341 2849.3903896 851.95782471 2847.29858398 C850.6136701 2842.79779247 849.27125975 2838.29648578 847.9302063 2833.79476929 C845.781736 2826.5827942 843.629327 2819.37199829 841.47631836 2812.16137695 C838.84989575 2803.36431956 836.2243611 2794.56699816 833.60006809 2785.76930523 C826.75927653 2762.83623418 819.90435376 2739.90739444 813.04696274 2716.97928238 C812.05631917 2713.66683293 811.0658127 2710.35434251 810.0753479 2707.0418396 C799.21960964 2670.73647167 788.33613452 2634.4394671 777.44262695 2598.14541626 C765.93036583 2559.78925226 754.44767295 2521.42430432 742.97754097 2483.05552292 C741.3301335 2477.5448116 739.68267314 2472.0341161 738.03515625 2466.5234375 C737.56231894 2464.94185978 737.56231894 2464.94185978 737.07992935 2463.32833099 C731.73615541 2445.45485717 726.38009236 2427.58511758 721.01443481 2409.71820068 C712.6281803 2381.79009229 704.28040908 2353.8504703 695.92736816 2325.91241455 C683.9799092 2285.95134704 683.9799092 2285.95134704 672 2246 C663.28435804 2216.97821312 654.60759893 2187.94480809 645.92736816 2158.91241455 C633.97979185 2118.95138219 633.97979185 2118.95138219 622 2079 C613.938079 2052.15189027 605.90613347 2025.29483257 597.875 1998.4375 C597.18293307 1996.12317896 596.49086561 1993.80885808 595.79879761 1991.49453735 C589.1836929 1969.37295842 582.56952415 1947.25109976 575.95681 1925.12880611 C572.3257904 1912.98157938 568.69435531 1900.8344769 565.0625 1888.6875 C564.73429008 1887.58976635 564.40608017 1886.4920327 564.0679245 1885.36103439 C552.88190217 1847.94909463 541.66811501 1810.54553114 530.44262695 1773.14541626 C518.93036583 1734.78925226 507.44767295 1696.42430432 495.97754097 1658.05552292 C494.3301335 1652.5448116 492.68267314 1647.0341161 491.03515625 1641.5234375 C490.56231894 1639.94185978 490.56231894 1639.94185978 490.07992935 1638.32833099 C484.73615541 1620.45485717 479.38009236 1602.58511758 474.01443481 1584.71820068 C465.6281803 1556.79009229 457.28040908 1528.8504703 448.92736816 1500.91241455 C436.97979185 1460.95138219 436.97979185 1460.95138219 425 1421 C416.938079 1394.15189027 408.90613347 1367.29483257 400.875 1340.4375 C400.18293307 1338.12317896 399.49086561 1335.80885808 398.79879761 1333.49453735 C392.1836929 1311.37295842 385.56952415 1289.25109976 378.95681 1267.12880611 C375.3257904 1254.98157938 371.69435531 1242.8344769 368.0625 1230.6875 C367.73429008 1229.58976635 367.40608017 1228.4920327 367.0679245 1227.36103439 C355.88190217 1189.94909463 344.66811501 1152.54553114 333.44262695 1115.14541626 C321.93036583 1076.78925226 310.44767295 1038.42430432 298.97754097 1000.05552292 C297.3301335 994.5448116 295.68267314 989.0341161 294.03515625 983.5234375 C293.71993137 982.46905235 293.4047065 981.41466721 293.07992935 980.32833099 C287.73615541 962.45485717 282.38009236 944.58511758 277.01443481 926.71820068 C268.6281803 898.79009229 260.28040908 870.8504703 251.92736816 842.91241455 C239.97979185 802.95138219 239.97979185 802.95138219 228 763 C219.938079 736.15189027 211.90613347 709.29483257 203.875 682.4375 C203.18293307 680.12317896 202.49086561 677.80885808 201.79879761 675.49453735 C195.1836929 653.37295842 188.56952415 631.25109976 181.95681 609.12880611 C178.3257904 596.98157938 174.69435531 584.8344769 171.0625 572.6875 C170.73429008 571.58976635 170.40608017 570.4920327 170.0679245 569.36103439 C158.88190217 531.94909463 147.66811501 494.54553114 136.44262695 457.14541626 C124.93036583 418.78925226 113.44767295 380.42430432 101.97754097 342.05552292 C100.3301335 336.5448116 98.68267314 331.0341161 97.03515625 325.5234375 C96.71993137 324.46905235 96.4047065 323.41466721 96.07992935 322.32833099 C90.73615541 304.45485717 85.38009236 286.58511758 80.01443481 268.71820068 C71.27311808 239.60765544 62.57269919 210.4848673 53.86651611 181.36380005 C46.39152965 156.36108711 38.91411947 131.35915651 31.4052124 106.36660767 C24.447938 83.20901131 17.53110196 60.03948893 10.63440704 36.8637886 C9.8794249 34.32736581 9.12395353 31.7910892 8.36834717 29.25485229 C7.19005825 25.2995394 6.01317079 21.34381228 4.8374176 17.3877449 C4.40100122 15.92006511 3.96412611 14.45252164 3.52677917 12.98511887 C2.92786802 10.97523907 2.33064764 8.9648648 1.73388672 6.9543457 C1.22908279 5.25723198 1.22908279 5.25723198 0.71408081 3.52583313 C-0 1 -0 1 0 0 Z " fill="#083049" transform="translate(0,0)"/>
<path d="M0 0 C65.01 0 130.02 0 197 0 C198.75445101 4.67853604 200.42326864 9.16030546 201.85229492 13.91137695 C202.19057816 15.0314061 202.52886139 16.15143524 202.87739563 17.30540466 C203.24140976 18.52075394 203.60542389 19.73610321 203.98046875 20.98828125 C204.38037571 22.31651651 204.78050411 23.6446851 205.18083191 24.97279358 C206.28495432 28.63858761 207.38549179 32.30544939 208.48534393 35.97252655 C209.4397608 39.15317288 210.3961888 42.33321315 211.35255051 45.51327515 C223.86216151 87.11277357 236.28976487 128.73696343 248.72763348 170.35795212 C255.76339968 193.90178926 262.80282533 217.44453195 269.84314728 240.98700714 C270.87566231 244.43971476 271.90813985 247.8924336 272.94061279 251.34515381 C280.28337665 275.89988654 287.62945963 300.4535888 295 325 C303.06169119 351.84817897 311.09388037 378.70516286 319.125 405.5625 C319.81606018 407.87346401 320.50712057 410.18442796 321.19818115 412.49539185 C327.49761002 433.56143569 333.79627402 454.62770821 340.09375 475.69433594 C344.10376851 489.10884301 348.11413351 502.52324644 352.125 515.9375 C352.45577797 517.04379383 352.78655594 518.15008766 353.12735748 519.28990555 C363.0668494 552.53203109 373.02562108 585.76832676 383 619 C393.30967793 653.34879015 403.60150802 687.70286891 413.875 722.0625 C414.20641747 723.17089863 414.53783493 724.27929726 414.87929535 725.42128372 C420.25718902 743.40732399 425.63387005 761.39372671 431.01040649 779.38017273 C436.0480302 796.23278683 441.08608812 813.08527102 446.125 829.9375 C446.4565786 831.04646259 446.7881572 832.15542519 447.12978363 833.29799271 C457.06849556 866.53741396 467.02643015 899.77102233 477 933 C487.30967793 967.34879015 497.60150802 1001.70286891 507.875 1036.0625 C508.20641747 1037.17089863 508.53783493 1038.27929726 508.87929535 1039.42128372 C514.25718902 1057.40732399 519.63387005 1075.39372671 525.01040649 1093.38017273 C530.0480302 1110.23278683 535.08608812 1127.08527102 540.125 1143.9375 C540.4565786 1145.04646259 540.7881572 1146.15542519 541.12978363 1147.29799271 C551.06849556 1180.53741396 561.02643015 1213.77102233 571 1247 C581.30967793 1281.34879015 591.60150802 1315.70286891 601.875 1350.0625 C602.3721262 1351.72509794 602.3721262 1351.72509794 602.87929535 1353.42128372 C608.25718902 1371.40732399 613.63387005 1389.39372671 619.01040649 1407.38017273 C624.0480302 1424.23278683 629.08608812 1441.08527102 634.125 1457.9375 C634.4565786 1459.04646259 634.7881572 1460.15542519 635.12978363 1461.29799271 C645.68164248 1496.58804676 656.25660175 1531.87112002 666.84597778 1567.14993286 C677.11771044 1601.37111988 687.36252154 1635.60030751 697.59622192 1669.83288574 C705.88486899 1697.55905437 714.17826947 1725.28374208 722.5 1753 C731.12374313 1781.72331489 739.7207896 1810.45458831 748.3125 1839.1875 C748.65029606 1840.31716061 748.98809212 1841.44682121 749.33612442 1842.61071396 C754.91041617 1861.25239023 760.4838669 1879.89431792 766.05723572 1898.53627014 C771.26693957 1915.96179499 776.47692149 1933.38723666 781.6875 1950.8125 C782.02618229 1951.94514156 782.36486458 1953.07778313 782.71380997 1954.24474716 C791.36290784 1983.16926167 800.02108979 2012.09100395 808.70272827 2041.00576782 C817.50890644 2070.33619556 826.27988807 2099.67713566 835.05171204 2129.01785278 C843.14059732 2156.07414863 851.23138045 2183.12984157 859.3521471 2210.17658806 C860.80574728 2215.01841293 862.25726611 2219.86085813 863.70776367 2224.70361328 C864.51208503 2227.38838292 865.31654517 2230.07311094 866.12109375 2232.7578125 C866.31722448 2233.41235538 866.51335522 2234.06689827 866.71542931 2234.74127579 C869.30828318 2243.39182844 871.91781665 2252.03718545 874.54146767 2260.67844772 C876.45274858 2266.97402665 878.35695265 2273.27171855 880.25649071 2279.57085037 C881.60100685 2284.02744744 882.95479303 2288.48107767 884.31601048 2292.93260002 C885.14616462 2295.65571747 885.96706238 2298.38156006 886.78539848 2301.10824966 C887.34495533 2302.96270273 887.91558773 2304.81380269 888.48658752 2306.6647644 C891.21110624 2315.7960708 891.21110624 2315.7960708 891.0378418 2320.13598633 C890.98623611 2325.40542605 892.45802716 2329.80551609 894.03125 2334.80078125 C894.36511719 2335.8940271 894.69898438 2336.98727295 895.04296875 2338.11364746 C895.98423598 2341.1908917 896.93510612 2344.2649956 897.8890686 2347.33832169 C898.93971989 2350.73342137 899.97658191 2354.13272022 901.01367188 2357.53198242 C901.23208488 2358.24778882 901.45049789 2358.96359522 901.67552948 2359.70109272 C902.13154423 2361.1957334 902.58750367 2362.69039095 903.04341125 2364.18506432 C903.76504353 2366.5492858 904.48807425 2368.91307635 905.21130371 2371.27680969 C911.38292012 2391.46222792 917.40469276 2411.69262018 923.44189453 2431.91854858 C926.56781516 2442.39060357 929.69819964 2452.86132438 932.82861328 2463.33203697 C933.52640343 2465.66603213 934.22415732 2468.00003813 934.921875 2470.33405495 C941.76559889 2493.22740623 948.62962574 2516.11463499 955.5 2539 C966.59089036 2575.94509889 977.64801319 2612.90024482 988.69637966 2649.85808086 C990.38082888 2655.492654 992.06537067 2661.12719946 993.75 2666.76171875 C994.23651126 2668.38893703 994.23651126 2668.38893703 994.73285103 2670.0490284 C999.50173518 2685.99846457 1004.28098909 2701.94473058 1009.07156372 2717.88766479 C1011.09381194 2724.62178685 1013.11037724 2731.35761417 1015.12779236 2738.09318542 C1017.66264889 2746.55294689 1020.20692646 2755.00984816 1022.75439453 2763.46582031 C1025.96680879 2774.12940451 1029.17139536 2784.79531606 1032.36938572 2795.4632349 C1034.16920302 2801.46598522 1035.97245796 2807.4676548 1037.78396606 2813.46688843 C1039.49509128 2819.13400007 1041.19707616 2824.80377863 1042.89237785 2830.47564316 C1043.52706612 2832.59316046 1044.16509453 2834.70967974 1044.80661201 2836.82513809 C1045.69332332 2839.7510322 1046.56802791 2842.68026356 1047.43994141 2845.6105957 C1047.70158113 2846.46379489 1047.96322084 2847.31699408 1048.23278904 2848.19604778 C1048.58495944 2849.39279739 1048.58495944 2849.39279739 1048.94424438 2850.61372375 C1049.25208327 2851.6375489 1049.25208327 2851.6375489 1049.56614113 2852.68205738 C1051.61550611 2863.63103353 1047.42669532 2870.57768226 1044 2882 C983.94 2882 923.88 2882 862 2882 C829.11101563 2773.20268461 829.11101563 2773.20268461 817.50683594 2733.93334961 C813.61241511 2720.76086544 809.68211268 2707.60026632 805.703125 2694.453125 C805.48139429 2693.72013372 805.25966358 2692.98714245 805.03121376 2692.23193932 C802.88064081 2685.12266556 800.72796683 2678.01405042 798.56497383 2670.90854454 C797.97341117 2668.96365079 797.38329491 2667.01832488 796.79376221 2665.07281494 C796.07809151 2662.71168002 795.35989853 2660.35130741 794.63861084 2657.99188232 C793.02574754 2652.66095001 791.56778957 2647.36176228 790.41871643 2641.91191101 C789.86182531 2639.36907726 789.11992839 2636.9085563 788.328125 2634.4296875 C788.00070312 2633.39271729 787.67328125 2632.35574707 787.3359375 2631.28735352 C786.97757813 2630.16127686 786.61921875 2629.0352002 786.25 2627.875 C782.0381287 2614.47527774 777.99837921 2601.02735262 774 2587.5625 C773.54661758 2586.03612411 773.54661758 2586.03612411 773.08407593 2584.47891235 C771.88475521 2580.44098692 770.68552927 2576.40303346 769.48686218 2572.36491394 C767.03016806 2564.09196442 764.55003635 2555.82621715 762.0625 2547.5625 C759.60974565 2539.40600977 757.18468572 2531.24277827 754.8125 2523.0625 C751.56078603 2511.85994277 748.24919716 2500.67526162 744.92636108 2489.49362183 C744.32048115 2487.45390921 743.71532838 2485.41398042 743.11099243 2483.37380981 C739.64327741 2471.67061996 736.09700398 2459.999973 732.34155273 2448.38546753 C730.63864478 2443.10081768 729.06415935 2437.79993132 727.625 2432.4375 C725.51641206 2424.66943067 723.15903413 2416.992605 720.75 2409.3125 C717.52136723 2399.01242662 714.42040649 2388.68613977 711.4375 2378.3125 C708.03116706 2366.47144665 704.47865202 2354.68213689 700.828125 2342.9140625 C698.9759143 2336.9413541 697.18360872 2330.95187382 695.39874268 2324.95878601 C693.63681709 2319.06926686 691.82338339 2313.19688985 689.99253845 2307.32846069 C685.07662584 2291.57007421 680.29151344 2275.77403044 675.56097412 2259.95901871 C674.47824189 2256.33988817 673.3942807 2252.72112563 672.31054688 2249.10229492 C670.86405562 2244.27170328 669.41789152 2239.44101408 667.97250366 2234.61009216 C664.62949318 2223.43747707 661.28067204 2212.2666164 657.92849445 2201.09674835 C655.03439008 2191.4529081 652.14269649 2181.80834685 649.25249004 2172.16333771 C647.45508648 2166.16545786 645.65664747 2160.16789304 643.85568237 2154.17108154 C642.14008845 2148.45826743 640.42763846 2142.74451952 638.7173748 2137.0301075 C638.08454838 2134.91758298 637.45064631 2132.80538031 636.81553841 2130.69354057 C633.58456047 2119.94766167 630.46545916 2109.19412168 627.65370941 2098.33039474 C626.20810062 2092.74837304 624.63276335 2087.22484779 622.90625 2081.72265625 C622.30352495 2079.77005248 621.70206239 2077.81705877 621.1015625 2075.86376953 C620.77124023 2074.78959778 620.44091797 2073.71542603 620.10058594 2072.60870361 C618.12478877 2066.13027595 616.19621158 2059.6377524 614.26419067 2053.14616013 C613.52749554 2050.67097933 612.79009273 2048.19601039 612.05249023 2045.72109985 C610.0235218 2038.91258873 607.99541296 2032.10382312 605.97021484 2025.29418945 C604.47184516 2020.25669166 602.97144752 2015.21980227 601.46875 2010.18359375 C601.22768965 2009.37567572 600.9866293 2008.56775768 600.73826408 2007.73535728 C597.63575999 1997.34815037 594.48111744 1986.98172524 591.12841797 1976.67185974 C589.42327926 1971.42070998 587.88189409 1966.1411628 586.4375 1960.8125 C584.7666978 1954.65766349 582.95137671 1948.57197832 581 1942.5 C578.83198479 1935.74843586 576.84694945 1928.97164298 574.98571777 1922.12974548 C573.47087989 1916.60307195 571.83895947 1911.12089021 570.15234375 1905.64453125 C566.673283 1894.27752376 563.27078022 1882.88819477 559.875 1871.49609375 C559.31516571 1869.61891927 558.75530524 1867.74175259 558.19541931 1865.86459351 C555.87951098 1858.09903512 553.56426232 1850.33328132 551.25195312 1842.56665039 C543.08359841 1814.99142711 543.08359841 1814.99142711 534.46484375 1787.55493164 C531.12889181 1777.26042636 528.04717339 1766.88332847 524.921875 1756.5234375 C524.52318435 1755.20241257 524.1244925 1753.88138801 523.72579956 1752.56036377 C522.39969751 1748.1654943 521.07476121 1743.77027379 519.75 1739.375 C519.51693901 1738.60186211 519.28387802 1737.82872421 519.04375458 1737.0321579 C506.04932488 1693.92329793 493.16404197 1650.78176593 480.27237511 1607.6420908 C473.23663085 1584.09823195 466.19717883 1560.55548196 459.15685272 1537.01299286 C458.12433769 1533.56028524 457.09186015 1530.1075664 456.05938721 1526.65484619 C448.38946433 1501.00607007 440.71445979 1475.35886412 433.01470947 1449.71902466 C424.62834832 1421.7906461 416.28049198 1393.85074759 407.92736816 1365.91241455 C395.97979185 1325.95138219 395.97979185 1325.95138219 384 1286 C375.938079 1259.15189027 367.90613347 1232.29483257 359.875 1205.4375 C359.18293307 1203.12317896 358.49086561 1200.80885808 357.79879761 1198.49453735 C351.1836929 1176.37295842 344.56952415 1154.25109976 337.95681 1132.12880611 C334.3257904 1119.98157938 330.69435531 1107.8344769 327.0625 1095.6875 C326.73429008 1094.58976635 326.40608017 1093.4920327 326.0679245 1092.36103439 C315.56528308 1057.2346797 305.03923621 1022.11539083 294.5 987 C283.6280753 950.77613358 272.77151033 914.54772505 261.9375 878.3125 C261.60865059 877.21266155 261.27980118 876.1128231 260.94098663 874.97965622 C256.29350704 859.43600994 251.6470268 843.89206498 247.00077057 828.34805298 C241.29293818 809.25264207 235.58451111 790.15740905 229.875 771.0625 C229.54322124 769.95287022 229.21144249 768.84324043 228.86960983 767.6999855 C218.3189496 732.41396551 207.74521924 697.13491722 197.15704346 661.86013794 C186.47202463 626.26208776 175.81658746 590.65523992 165.17089844 555.04541016 C163.16088507 548.32191685 161.15081001 541.59844199 159.140625 534.875 C158.8207814 533.80521912 158.50093781 532.73543823 158.17140198 531.63323975 C153.1241757 514.75250974 148.06746964 497.87466461 143 481 C134.93810169 454.15188346 126.90611952 427.29483677 118.875 400.4375 C118.18393982 398.12653599 117.49287943 395.81557204 116.80181885 393.50460815 C110.50238998 372.43856431 104.20372598 351.37229179 97.90625 330.30566406 C93.89623149 316.89115699 89.88586649 303.47675356 85.875 290.0625 C85.54422203 288.95620617 85.21344406 287.84991234 84.87264252 286.71009445 C74.62831863 252.4484739 64.36262521 218.19331314 54.08229065 183.94248199 C43.93097979 150.1211685 33.79761637 116.29451765 23.67950439 82.46325684 C22.64027645 78.98857714 21.60091583 75.51393715 20.56152344 72.03930664 C17.15211488 60.64126862 13.74492115 49.24257701 10.34303665 37.84229088 C8.88119248 32.94505256 7.41505381 28.04914814 5.94230843 23.15517712 C5.34303075 21.16257451 4.74540572 19.1694857 4.14852905 17.17616272 C3.46850099 14.90602051 2.78553185 12.63675594 2.0987854 10.36863708 C1.67162735 8.93814781 1.67162735 8.93814781 1.23583984 7.47875977 C0.99376801 6.67479263 0.75169617 5.8708255 0.50228882 5.04249573 C0 3 0 3 0 0 Z " fill="#1C90B8" transform="translate(646,0)"/>
<path d="M0 0 C2.71306718 2.71306718 3.25336783 5.77290717 4.25 9.375 C6.04723761 15.72745895 7.89976491 22.06104535 9.80444336 28.38208008 C10.06354712 29.24383504 10.32265089 30.10559 10.58960629 30.99345875 C11.39234738 33.6625242 12.19606317 36.33129449 13 39 C13.48723915 40.61843702 13.97447279 42.23687569 14.46170044 43.85531616 C15.67746119 47.89254352 16.89428735 51.92944901 18.1114521 55.96625328 C19.18459977 59.52563249 20.25728394 63.08515135 21.33000851 66.64465809 C23.31005169 73.21479495 25.29028485 79.78487444 27.27124023 86.35473633 C28.66621753 90.98125948 30.06063101 95.60795225 31.45469475 100.23475075 C31.97787197 101.97077337 32.50124709 103.70673636 33.02484322 105.44263268 C36.03582997 115.42539637 39.01787837 125.41583804 41.9495697 135.42219543 C43.28012161 139.9541046 44.63599611 144.47807308 46 149 C47.85350012 155.16086287 49.69088271 161.32595884 51.5 167.5 C53.96700643 175.91597092 56.48651696 184.31586457 59.01269531 192.7142334 C59.75956901 195.19984163 60.50563911 197.68568404 61.25097656 200.17175293 C64.7142483 211.7232149 68.18758635 223.27161521 71.66703987 234.81821251 C72.87542685 238.82847024 74.08338772 242.8388563 75.29138088 246.84923267 C77.52373793 254.26035239 79.75625198 261.6714247 81.98950195 269.08227539 C83.55953264 274.29234878 85.12901365 279.50258749 86.69814873 284.71293068 C87.28831695 286.67223873 87.8786793 288.63148832 88.46925545 290.59067345 C89.81970583 295.07081199 91.16734765 299.55172978 92.50735474 304.03500366 C93.4886627 307.31487273 94.49062079 310.58732823 95.50900269 313.85586548 C95.97275249 315.36849914 96.43646889 316.88114304 96.90014648 318.39379883 C97.11406823 319.06423816 97.32798998 319.73467749 97.5483942 320.42543316 C99.95858447 328.36823943 98.86776448 334.46453376 96.47509766 342.14453125 C96.20424001 343.0413839 95.93338236 343.93823654 95.6543169 344.86226654 C94.74999284 347.84852498 93.83198865 350.83039721 92.9140625 353.8125 C92.26620074 355.9428842 91.61925411 358.07354689 90.97315979 360.20446777 C89.58940876 364.76210242 88.19980896 369.31789526 86.80551147 373.87231445 C84.61643324 381.02331921 82.44018215 388.17818181 80.2668457 395.33398438 C79.53158258 397.75452029 78.79630727 400.1750525 78.0610199 402.59558105 C77.69532835 403.79947983 77.3296368 405.0033786 76.95286369 406.24375916 C75.83457628 409.92358309 74.71500643 413.60301469 73.59510803 417.28234863 C66.66404528 440.06005715 59.83062686 462.86643765 53.0276413 485.68267822 C51.64827945 490.30821704 50.26766374 494.93338159 48.88720703 499.55859375 C47.20411044 505.19822268 45.52102658 510.83785495 43.8406477 516.47829437 C43.43516692 517.83753547 43.02869774 519.19648223 42.62110615 520.55509186 C41.76006498 523.42759339 40.91509891 526.30245958 40.10464478 529.18969727 C39.84621796 530.10227295 39.58779114 531.01484863 39.3215332 531.95507812 C39.11011185 532.72468872 38.89869049 533.49429932 38.68086243 534.28723145 C38 536 38 536 36 537 C35.73992661 536.12177582 35.47985321 535.24355164 35.2118988 534.3387146 C32.72925689 525.95670848 30.24444675 517.57534863 27.75735378 509.19466209 C26.47958621 504.88873975 25.2025836 500.58259398 23.92749023 496.27587891 C22.45271253 491.29519824 20.97561974 486.31520976 19.49609375 481.3359375 C19.25400555 480.52111656 19.01191734 479.70629562 18.76249313 478.86678314 C15.75213588 468.74589278 12.65377078 458.66263151 9.3971405 448.61782837 C6.94731411 440.9926527 4.80474885 433.29126822 2.67390442 425.5718689 C-0.60198512 413.73749403 -4.17520821 401.99682253 -7.75 390.25 C-9.16153381 385.59807339 -10.57114511 380.94556535 -11.98046875 376.29296875 C-12.3258519 375.15347275 -12.67123505 374.01397675 -13.02708435 372.83995056 C-16.07968276 362.75944688 -19.07803834 352.66334239 -22.0625 342.5625 C-24.56386087 334.09767771 -27.07059009 325.63841411 -29.78588867 317.23901367 C-30.10404541 316.25263916 -30.42220215 315.26626465 -30.75 314.25 C-31.10692932 313.15151482 -31.10692932 313.15151482 -31.47106934 312.03083801 C-33.54638081 305.57992273 -35.40013185 299.08445729 -37.1953125 292.55078125 C-40.65161115 280.09609948 -44.33470407 267.71646033 -48.08935547 255.34887695 C-49.13380332 251.90850217 -50.17463131 248.46704813 -51.21484375 245.02539062 C-51.55513611 243.90202301 -51.89542847 242.7786554 -52.24603271 241.62124634 C-52.91302042 239.41687149 -53.57766744 237.21178685 -54.23980713 235.00595093 C-55.63967021 230.36394325 -57.06155335 225.74509554 -58.67480469 221.17236328 C-59.04458939 220.09771568 -59.04458939 220.09771568 -59.42184448 219.00135803 C-60.05504573 217.18241555 -60.71529502 215.37294601 -61.37841797 213.56469727 C-62.77945029 205.5299475 -59.23169589 196.98735369 -56.87597656 189.33911133 C-56.414146 187.81848241 -56.414146 187.81848241 -55.94298553 186.26713371 C-55.27786255 184.07889441 -54.61061971 181.89129854 -53.94145966 179.70429039 C-52.49697346 174.98284146 -51.06307485 170.25819636 -49.62846756 165.53373814 C-48.87786752 163.06217658 -48.12673934 160.59077537 -47.375103 158.11952877 C-43.49741384 145.36609457 -39.67462605 132.59644411 -35.859375 119.82421875 C-35.18432979 117.5659149 -34.50924015 115.30762432 -33.83410645 113.04934692 C-32.1444229 107.39680495 -30.45551867 101.74403047 -28.7668457 96.09118652 C-26.04786721 86.98995273 -23.32757893 77.88911026 -20.6073761 68.78824234 C-19.94660858 66.57750497 -19.28587206 64.36675833 -18.62516785 62.15600204 C-12.43174501 41.43284029 -6.22099099 20.71490129 0 0 Z " fill="#083049" transform="translate(1177,1776)"/>
</svg>
