<?xml version="1.0" encoding="UTF-8"?>
<svg version="1.1" xmlns="http://www.w3.org/2000/svg" width="3295" height="1098">
<path d="M0 0 C25.08 0 50.16 0 76 0 C79.37500675 9.00001799 79.37500675 9.00001799 80.39823914 12.41804504 C80.75143723 13.59052418 80.75143723 13.59052418 81.11177063 14.78668976 C81.3593663 15.61867638 81.60696198 16.45066299 81.86206055 17.30786133 C82.13369019 18.21247353 82.40531982 19.11708572 82.68518066 20.04911041 C83.58832465 23.05930233 84.48752519 26.07065714 85.38671875 29.08203125 C86.03368591 31.24137781 86.6808935 33.40065235 87.32832336 35.55986023 C89.08356566 41.41622524 90.83536287 47.27361575 92.58654785 53.13119507 C94.44436708 59.34327169 96.3053992 65.55438573 98.16601562 71.765625 C102.41037666 85.93687387 106.64992205 100.10956056 110.88829803 114.2826004 C112.30663377 119.02534699 113.72520209 123.76802399 115.14378262 128.51069736 C120.42266315 146.15940529 125.70090928 163.80830297 130.97669506 181.45793629 C141.13927008 215.45541951 151.32880664 249.44475739 161.52974319 283.43074799 C173.38479685 322.92811805 185.21103533 362.43403949 197.02245903 401.94447708 C198.6698665 407.4551884 200.31732686 412.9658839 201.96484375 418.4765625 C202.28006863 419.53094765 202.5952935 420.58533279 202.92007065 421.67166901 C207.93666208 438.45080611 212.96306311 455.22695868 218 472 C226.06189267 498.84811826 234.09386651 525.70516738 242.125 552.5625 C242.81706693 554.87682104 243.50913439 557.19114192 244.20120239 559.50546265 C250.8163071 581.62704158 257.43047585 603.74890024 264.04319 625.87119389 C267.6742096 638.01842062 271.30564469 650.1655231 274.9375 662.3125 C275.26570992 663.41023365 275.59391983 664.5079673 275.9320755 665.63896561 C287.11438567 703.03848997 298.32393673 740.42979685 309.54629517 777.81732178 C317.35788353 803.84210432 325.16148779 829.86924209 332.9453125 855.90234375 C333.49598263 857.74402571 333.49598263 857.74402571 334.0577774 859.62291336 C337.60406056 871.48368454 341.14937371 883.34474511 344.69281197 895.20636654 C345.98410975 899.52866099 347.27583514 903.85082758 348.56762314 908.17297554 C349.43566926 911.0779899 350.303073 913.98319549 351.17044067 916.88841248 C352.49622817 921.32686528 353.82600541 925.76410376 355.15912628 930.20035934 C355.75545875 932.18581397 356.35076808 934.17157602 356.94536591 936.15755081 C357.90871103 939.3723851 358.87646602 942.58586271 359.84521484 945.79907227 C360.14554438 946.80370231 360.44587391 947.80833235 360.75530434 948.84340572 C361.03419691 949.76528462 361.31308949 950.68716352 361.60043335 951.63697815 C361.84693823 952.45665856 362.09344311 953.27633898 362.34741783 954.12085819 C362.84289088 955.98822491 362.84289088 955.98822491 364 957 C366.90596233 947.64358812 369.79323523 938.28163101 372.65714359 928.91225529 C373.98772324 924.56128577 375.32453035 920.21244258 376.67602539 915.86791992 C377.9813892 911.67086077 379.26979576 907.46893045 380.54687309 903.26318169 C381.03568279 901.66388711 381.5304549 900.06640172 382.03141975 898.47087288 C382.73508163 896.22612977 383.41676885 893.97573799 384.09399414 891.72290039 C384.30330566 891.07265396 384.51261719 890.42240753 384.72827148 889.75245667 C387.22470029 881.23877856 384.79076404 873.46676224 382.25048828 865.26342773 C381.9683142 864.32957623 381.68614012 863.39572472 381.39541531 862.43357468 C380.46110076 859.34795076 379.51570524 856.26583969 378.5703125 853.18359375 C377.90608009 850.99707459 377.24259784 848.81032743 376.57981873 846.62336731 C375.17041134 841.97766355 373.75631642 837.33342421 372.33840942 832.69030762 C370.10411064 825.37314935 367.88076529 818.0526942 365.65991211 810.73144531 C365.29206069 809.51889257 364.92420927 808.30633984 364.54521084 807.05704308 C363.80575706 804.61955812 363.0663297 802.18206515 362.32692909 799.74456406 C361.22408383 796.11017328 360.12024871 792.47608445 359.01615906 788.84207153 C353.79833312 771.66397185 348.64454869 754.46877452 343.5625 737.25 C342.10041971 732.30295253 340.63691881 727.35632686 339.171875 722.41015625 C338.98103521 721.76579494 338.79019543 721.12143364 338.59357262 720.45754623 C331.89480468 697.8491855 325.09318071 675.27138807 318.3125 652.6875 C315.45289698 643.16282886 312.59345598 633.63810911 309.734375 624.11328125 C309.37527039 622.91697334 309.01616577 621.72066544 308.6461792 620.48810577 C300.43229926 593.12284676 292.24549008 565.74950891 284.0625 538.375 C281.38684082 529.42444267 278.71108785 520.47391339 276.03515625 511.5234375 C275.71985773 510.46880877 275.40455921 509.41418003 275.07970619 508.32759285 C269.73600731 490.45436487 264.38001843 472.5848714 259.01443481 454.71820068 C250.6281803 426.79009229 242.28040908 398.8504703 233.92736816 370.91241455 C221.97979185 330.95138219 221.97979185 330.95138219 210 291 C202.28355424 265.30240478 194.59449177 239.59663956 186.90747452 213.89022827 C185.87798515 210.44748272 184.8484649 207.00474641 183.81893921 203.56201172 C177.05800652 180.95323173 170.29813255 158.34413544 163.54056549 135.73434925 C160.66760293 126.12189542 157.79421592 116.50956852 154.92057037 106.89731884 C152.89871241 100.13412906 150.87743879 93.37076505 148.85665894 86.60725307 C147.59369151 82.38065252 146.33013762 78.15422744 145.06645966 73.92783928 C144.45639521 71.88701571 143.84657398 69.84611942 143.23700714 67.80514717 C139.91867225 56.69513676 136.57762574 45.59268618 133.18896484 34.50390625 C132.57478439 32.48980507 131.96066279 30.47568594 131.34660339 28.46154785 C130.19323072 24.67892944 129.03265671 20.89862517 127.86787415 17.11950684 C127.35264719 15.43196664 126.83767353 13.74434909 126.32299805 12.05664062 C126.08572432 11.29406448 125.84845058 10.53148834 125.60398674 9.74580383 C124.56140098 6.30658619 124 3.6308826 124 0 C149.08 0 174.16 0 200 0 C205.87499999 19.64453123 205.87499999 19.64453123 207.91392517 26.4622345 C211.03290106 36.89138055 214.15191977 47.32051379 217.27107525 57.74960613 C219.14037431 63.99973082 221.00964689 70.24986344 222.87890625 76.5 C223.06823455 77.13304495 223.25756285 77.7660899 223.45262837 78.41831803 C228.6717555 95.86921959 233.88972099 113.32046801 239.10628891 130.77213478 C253.56457251 179.14059534 268.04467366 227.50242111 282.55737305 275.85458374 C294.06963417 314.21074774 305.55232705 352.57569568 317.02245903 390.94447708 C318.6698665 396.4551884 320.31732686 401.9658839 321.96484375 407.4765625 C322.28006863 408.53094765 322.5952935 409.58533279 322.92007065 410.67166901 C327.93666208 427.45080611 332.96306311 444.22695868 338 461 C349.55357497 499.47629331 361.05118155 537.96935711 372.55911255 576.45932007 C377.24047426 592.11661589 381.92316175 607.77351471 386.6067543 623.43014336 C388.74713153 630.58521159 390.887365 637.74032282 393.0276165 644.89542866 C394.7170333 650.54329013 396.40653543 656.19112604 398.09625244 661.83889771 C407.08579004 691.88617293 416.05348202 721.93988695 425 752 C425.49792483 750.47820119 425.99569187 748.95635076 426.49339294 747.43447876 C426.77060401 746.58700388 427.04781507 745.739529 427.33342648 744.86637306 C429.26943796 738.92589375 431.13200548 732.9621199 433 727 C433.28236511 726.10108032 433.56473022 725.20216064 433.85565186 724.27600098 C435.79183194 718.10377195 437.70242914 711.92425724 439.58953857 705.73684692 C440.23557668 703.62910759 440.88807758 701.5233378 441.54718018 699.41964722 C442.48809661 696.41121494 443.40470512 693.39630165 444.31640625 690.37890625 C444.60245224 689.48164825 444.88849823 688.58439026 445.18321228 687.65994263 C445.43800858 686.79964447 445.69280487 685.93934631 445.95532227 685.05297852 C446.18212173 684.3156398 446.4089212 683.57830109 446.64259338 682.81861877 C447.61538154 675.14691142 445.61356861 667.74420353 443.36499023 660.46508789 C443.09366115 659.56021196 442.82233206 658.65533604 442.54278088 657.72303963 C441.64004 654.72022497 440.72431295 651.72153613 439.80859375 648.72265625 C439.15756159 646.56603247 438.50738613 644.40914992 437.85800171 642.25202942 C436.46150896 637.61927025 435.05936593 632.98827413 433.65274048 628.35858154 C431.40539548 620.96137968 429.17069576 613.5603961 426.93823242 606.15869141 C426.17309451 603.62248411 425.40791174 601.08629034 424.64268494 598.55010986 C424.45201268 597.91815531 424.26134041 597.28620076 424.06489021 596.63509607 C422.69895803 592.10855818 421.33120651 587.58257236 419.96266174 583.05682373 C414.86208733 566.18788819 409.78765259 549.31129366 404.7421875 532.42578125 C404.2472753 530.7694741 404.2472753 530.7694741 403.74236488 529.07970619 C402.09007086 523.54922315 400.43842692 518.01854624 398.78713989 512.48776245 C395.47185119 501.38415002 392.151969 490.2819106 388.83203125 479.1796875 C388.50528601 478.08693701 388.17854076 476.99418652 387.84189415 475.86832237 C380.2709084 450.54946401 372.67516834 425.23804607 365.07762527 399.92714691 C354.08548501 363.30683642 343.12232043 326.67791673 332.17089844 290.04541016 C330.16088507 283.32191685 328.15081001 276.59844199 326.140625 269.875 C325.6608596 268.27032867 325.6608596 268.27032867 325.17140198 266.63323975 C320.12417571 249.75250976 315.06748121 232.87466113 310 216 C300.35664724 183.88552128 290.75166749 151.75955245 281.1484375 119.63305664 C280.80656088 118.48935954 280.46468426 117.34566244 280.11244774 116.16730785 C277.30568439 106.77766037 277.30568439 106.77766037 275.99177933 102.38188744 C271.84555023 88.51068823 267.69526928 74.64071535 263.53813171 60.77278137 C261.61806715 54.36754847 259.69970869 47.96180509 257.78187656 41.55590343 C256.27916005 36.53709422 254.77414401 31.51898231 253.26739979 26.50138092 C252.35599825 23.46428052 251.44683518 20.42651372 250.53835487 17.38853836 C250.12178608 15.9972221 249.70426597 14.60619027 249.28572655 13.21546555 C248.72248612 11.3435325 248.16288803 9.47050464 247.60351562 7.59741211 C247.29144165 6.55669052 246.97936768 5.51596893 246.65783691 4.44371033 C246 2 246 2 246 0 C271.08 0 296.16 0 322 0 C331.18836153 28.71362979 331.18836153 28.71362979 335.34375 42.7109375 C335.8263619 44.32940325 336.30920974 45.94779866 336.79226685 47.56613159 C337.8236374 51.02303879 338.85351222 54.48038637 339.88214111 57.93811035 C341.55602893 63.56466123 343.23355962 69.19012237 344.91162109 74.81542969 C346.71941883 80.87611973 348.52704813 86.93685958 350.33358765 92.9979248 C354.77987203 107.91496186 359.23478478 122.82940357 363.6953125 137.7421875 C364.17957766 139.36122199 364.17957766 139.36122199 364.67362595 141.01296425 C366.3224164 146.5251342 367.97137165 152.03725483 369.62042236 157.54934692 C372.66574405 167.72864868 375.71027191 177.90818786 378.75483322 188.08771706 C379.78230494 191.52305844 380.80980671 194.95839083 381.83731079 198.39372253 C386.25496163 213.16384404 390.67119355 227.93438926 395.08662796 242.70517349 C408.37058739 287.14294644 421.66659165 331.5770366 435 376 C445.30967793 410.34879015 455.60150802 444.70286891 465.875 479.0625 C466.20641747 480.17089863 466.53783493 481.27929726 466.87929535 482.42128372 C472.25718902 500.40732399 477.63387005 518.39372671 483.01040649 536.38017273 C488.0480302 553.23278683 493.08608812 570.08527102 498.125 586.9375 C498.4565786 588.04646259 498.7881572 589.15542519 499.12978363 590.29799271 C509.67793022 625.57563133 520.24861919 660.84645832 530.8348999 696.1126709 C538.11553795 720.36708567 545.38671757 744.62429457 552.640625 768.88671875 C553.00180923 770.09474277 553.36299347 771.3027668 553.73512268 772.54739761 C557.25303447 784.31380185 560.77011967 796.08045257 564.28520966 807.84770012 C565.57186332 812.15459217 566.85898189 816.46134519 568.14619446 820.76807022 C568.7633433 822.83332104 569.3802794 824.89863544 569.99699402 826.96401596 C572.99368462 836.9995281 575.99980657 847.03160615 579.06835938 857.04541016 C579.30464931 857.81807252 579.54093925 858.59073488 579.7843895 859.38681126 C580.85692184 862.89340751 581.93353857 866.39859744 583.02032471 869.90080261 C583.38841248 871.10118668 583.75650024 872.30157074 584.13574219 873.53833008 C584.6076297 875.06276482 584.6076297 875.06276482 585.08905029 876.61799622 C585.82599195 879.35397544 586.41376081 882.02963356 586.94551086 884.80827332 C587.91977446 889.81708834 589.25626578 894.64909621 590.73608398 899.52929688 C591.00563589 900.43158744 591.2751878 901.333878 591.55290794 902.2635107 C592.44627018 905.24991858 593.34612217 908.23432786 594.24609375 911.21875 C594.88805134 913.35918434 595.52961791 915.49973598 596.17082214 917.64039612 C597.54122237 922.21261687 598.91442828 926.78398256 600.28961182 931.35476685 C602.45028572 938.53826538 604.60033261 945.72492097 606.74951172 952.91186523 C613.50211022 975.47858185 620.29694167 998.03106437 627.21532631 1020.5475502 C629.12409362 1026.767933 631.02144924 1032.99180771 632.9184866 1039.21577644 C634.70237327 1045.06274758 636.50681121 1050.90286257 638.32659245 1056.73875523 C639.44593276 1060.34487256 640.5462443 1063.95658901 641.64141273 1067.57011223 C642.14781445 1069.22668768 642.66216738 1070.88085803 643.1852932 1072.53222847 C648.35121659 1088.86266337 648.35121659 1088.86266337 645 1097 C644 1098 644 1098 641.22227478 1098.12025452 C639.98095291 1098.11803391 638.73963104 1098.11581329 637.46069336 1098.11352539 C636.77779739 1098.11367142 636.09490143 1098.11381744 635.39131165 1098.1139679 C633.12412386 1098.11326876 630.85701726 1098.1054764 628.58984375 1098.09765625 C627.02185613 1098.09579207 625.45386793 1098.09436817 623.88587952 1098.09336853 C619.75123497 1098.08954334 615.61662534 1098.07971306 611.48199463 1098.06866455 C607.26599602 1098.05845044 603.04999178 1098.05387091 598.83398438 1098.04882812 C590.55597353 1098.03809079 582.2779911 1098.02101436 574 1098 C573.53352806 1096.42812424 573.53352806 1096.42812424 573.05763245 1094.82449341 C570.13136977 1084.96472048 567.20315993 1075.1055277 564.27302647 1065.24690437 C562.76656259 1060.17807854 561.26079341 1055.10904846 559.7565918 1050.03955078 C558.30582476 1045.15023215 556.85325915 1040.26145124 555.39942741 1035.37304306 C554.84417118 1033.50486291 554.28957114 1031.6364876 553.73562813 1029.76791763 C552.96162031 1027.15742658 552.18531443 1024.5476296 551.40844727 1021.93798828 C551.17827408 1021.1597168 550.94810089 1020.38144531 550.71095276 1019.57958984 C549.57650095 1015.70581778 549.57650095 1015.70581778 548 1012 C535.13 1054.57 535.13 1054.57 522 1098 C498.9 1098 475.8 1098 452 1098 C443.98501826 1072.81005739 443.98501826 1072.81005739 440.77173233 1061.85196495 C440.16844069 1059.79510198 439.56184625 1057.73923471 438.95455933 1055.68354797 C437.45574613 1050.60812728 435.96125993 1045.53143667 434.46832275 1040.45428467 C433.18636269 1036.09462419 431.9019519 1031.73570327 430.61376572 1027.37787819 C430.01687006 1025.35491608 429.42369719 1023.33088598 428.83059692 1021.30680847 C428.47287201 1020.09656509 428.11514709 1018.88632172 427.74658203 1017.6394043 C427.43238312 1016.57102829 427.1181842 1015.50265228 426.79446411 1014.40190125 C426.22413138 1012.07437081 426.22413138 1012.07437081 425 1011 C422.19942463 1020.27586176 419.39997832 1029.55206333 416.60191727 1038.82868385 C415.30220887 1043.13758007 414.0021323 1047.44636443 412.70117188 1051.75488281 C411.44238163 1055.92379356 410.18461392 1060.09301162 408.92751312 1064.2624321 C408.45111188 1065.84188886 407.97436097 1067.4212402 407.49723053 1069.00047684 C406.82173098 1071.23651833 406.14755178 1073.47295436 405.47363281 1075.70947266 C405.28229767 1076.34174271 405.09096252 1076.97401276 404.89382935 1077.6254425 C402.85611286 1084.39764419 400.94358764 1091.19744325 399 1098 C375.9 1098 352.8 1098 329 1098 C325.62499325 1088.99998201 325.62499325 1088.99998201 324.60176086 1085.58195496 C324.36629453 1084.80029905 324.13082819 1084.01864315 323.88822651 1083.2133007 C323.64063178 1082.38131723 323.39303705 1081.54933376 323.13793945 1080.69213867 C322.86631831 1079.7875548 322.59469717 1078.88297092 322.31484509 1077.95097542 C321.41169252 1074.9407549 320.51248357 1071.92937142 319.61328125 1068.91796875 C318.96617678 1066.75816442 318.31883185 1064.59843212 317.67126465 1062.43876648 C315.91595729 1056.58218536 314.16409412 1050.72457902 312.41284561 1044.86678314 C310.55742189 1038.66270585 308.69879245 1032.45958899 306.84057617 1026.25634766 C302.59601807 1012.08440947 298.35629769 997.91102685 294.11767578 983.73731232 C292.68588909 978.94966806 291.25384817 974.16209987 289.82178783 969.37453747 C284.48517438 951.53352974 279.14917782 933.6923375 273.81579494 915.85036373 C264.25607476 883.87004171 254.6738394 851.8965357 245.07762527 819.92714691 C234.08548501 783.30683642 223.12232043 746.67791673 212.17089844 710.04541016 C210.16088507 703.32191685 208.15081001 696.59844199 206.140625 689.875 C205.8207814 688.80521912 205.50093781 687.73543823 205.17140198 686.63323975 C200.1241757 669.75250974 195.06746964 652.87466461 190 636 C181.93810168 609.15188344 173.90613348 582.29483261 165.875 555.4375 C165.18293307 553.12317896 164.49086561 550.80885808 163.79879761 548.49453735 C157.1836929 526.37295842 150.56952415 504.25109976 143.95681 482.12880611 C140.3257904 469.98157938 136.69435531 457.8344769 133.0625 445.6875 C132.73429008 444.58976635 132.40608017 443.4920327 132.0679245 442.36103439 C120.88190217 404.94909463 109.66811501 367.54553114 98.44262695 330.14541626 C86.93036583 291.78925226 75.44767295 253.42430432 63.97754097 215.05552292 C62.3301335 209.5448116 60.68267314 204.0341161 59.03515625 198.5234375 C58.56231894 196.94185978 58.56231894 196.94185978 58.07992935 195.32833099 C53.39274443 179.65096928 48.69804866 163.97589536 43.99215698 148.30413818 C36.0965687 122.00979646 28.21500048 95.7112422 20.34147644 69.41028595 C18.49338505 63.23695142 16.64468739 57.06380008 14.79443359 50.89111328 C13.04456433 45.0532096 11.29644718 39.21478404 9.54962158 33.37596893 C8.89705594 31.19583258 8.24386843 29.01588226 7.59002686 26.83612823 C6.684633 23.81736089 5.78150119 20.79792551 4.87890625 17.77832031 C4.61510666 16.90066513 4.35130707 16.02300995 4.07951355 15.11875916 C3.83356949 14.29430801 3.58762543 13.46985687 3.33422852 12.62042236 C3.12347183 11.91667103 2.91271515 11.21291969 2.6955719 10.48784256 C1.72365076 7.01158542 0.87544928 3.5017971 0 0 Z M486 804 C482.913081 813.69073334 479.85979639 823.39137586 476.84808064 833.10576248 C475.44830427 837.61713725 474.03753443 842.12441506 472.6003418 846.62402344 C471.21168946 850.97311705 469.85362113 855.33072956 468.51555443 859.69564056 C468.00193025 861.35259295 467.47768729 863.00629505 466.94231606 864.65634918 C463.65116169 874.82780275 462.16564611 881.67009066 466 892 C466.54313899 893.8413727 467.08551511 895.68303279 467.61042023 897.52968597 C468.59345216 900.97321904 469.6367883 904.39876837 470.66796875 907.828125 C471.11232158 909.31306021 471.55643446 910.79806725 472.00032043 912.28314209 C473.15691135 916.15035397 474.31671146 920.0165958 475.47723389 923.88262939 C476.66583826 927.84433754 477.85133418 931.80697558 479.03710938 935.76953125 C481.35506986 943.51392276 483.67642905 951.25728998 486 959 C488.31994213 958.12182559 488.31994213 958.12182559 489.08244324 955.16221619 C489.48384712 953.88139668 489.8764683 952.59780668 490.26245117 951.31225586 C490.47892807 950.61294952 490.69540497 949.91364319 490.91844177 949.19314575 C491.63497858 946.86951789 492.33960335 944.54248999 493.04296875 942.21484375 C493.53552058 940.59868962 494.02830635 938.98260677 494.52131653 937.36659241 C495.55487386 933.97107723 496.58193125 930.57367046 497.60522461 927.17504883 C498.91416668 922.83142338 500.24440513 918.49465439 501.58042431 914.15929317 C502.60606463 910.81923853 503.61735614 907.4749641 504.62475014 904.12936592 C505.10891056 902.52954889 505.59811905 900.93125023 506.09255028 899.33457756 C506.78531276 897.09177942 507.45776709 894.84379438 508.12573242 892.59350586 C508.43498657 891.61509987 508.43498657 891.61509987 508.75048828 890.6169281 C510.82399593 883.46487108 509.31221558 877.43560541 507.18994141 870.46728516 C506.81930573 869.23885895 506.44867004 868.01043274 506.06680298 866.74478149 C505.66185374 865.42616828 505.25677023 864.1075963 504.8515625 862.7890625 C504.4336212 861.41215085 504.01626311 860.03506205 503.59945679 858.6578064 C502.50487631 855.04649528 501.4025637 851.437591 500.29852295 847.8291626 C499.18399644 844.18177738 498.07662091 840.53222368 496.96875 836.8828125 C495.33940708 831.51782829 493.70595472 826.15412412 492.06884766 820.79150391 C490.36262798 815.19925725 488.67239367 809.60245259 487 804 C486.67 804 486.34 804 486 804 Z " fill="#106B98" transform="translate(0,0)"/>
<path d="M0 0 C104.28 0 208.56 0 316 0 C314.15386973 7.38452108 312.28819497 14.65429785 310.07104492 21.91845703 C309.79332969 22.83691029 309.51561445 23.75536354 309.2294836 24.70164871 C308.31579676 27.72118026 307.39810488 30.73947904 306.48046875 33.7578125 C305.8278204 35.91255936 305.1754735 38.06739755 304.52340698 40.22232056 C303.13670732 44.8035659 301.74844388 49.384333 300.35891724 53.96472168 C296.68211435 66.0861343 293.0169365 78.21106503 289.3515625 90.3359375 C288.98611139 91.54455948 288.62066029 92.75318146 288.2441349 93.99842834 C282.33959789 113.52838007 276.4841677 133.07221014 270.68906784 152.63489151 C268.74085762 159.21147543 266.79098512 165.78756638 264.83984375 172.36328125 C264.6166427 173.11553419 264.39344166 173.86778713 264.16347694 174.64283562 C257.20405929 198.09034118 250.15837488 221.51210117 243.125 244.9375 C240.28493235 254.39706821 237.44502307 263.85668394 234.60546875 273.31640625 C234.0726466 275.09141888 234.0726466 275.09141888 233.52906036 276.90229034 C225.47925224 303.72076118 217.45661965 330.54733992 209.4375 357.375 C206.76975557 366.29954623 204.10185041 375.2240444 201.43359375 384.1484375 C200.9521629 385.75865752 200.9521629 385.75865752 200.46100616 387.40140724 C194.55760954 407.14502175 188.63938699 426.8841637 182.7141304 446.62122726 C173.29015029 478.01256265 163.88955501 509.41085048 154.5 540.8125 C154.16300457 541.93949184 153.82600914 543.06648369 153.47880173 544.2276268 C146.9784033 565.96652148 140.47921021 587.70577646 133.98095703 609.4453125 C130.00861278 622.73451695 126.03582142 636.02358767 122.0625 649.3125 C121.73388977 650.41156803 121.40527954 651.51063606 121.06671143 652.64300919 C109.8827814 690.04789659 98.67161302 727.44456713 87.44766235 764.83746338 C79.70844909 790.62117189 71.97675708 816.40709628 64.265625 842.19921875 C63.90596649 843.40215702 63.54630798 844.60509529 63.17575073 845.84448624 C59.7153735 857.41867152 56.25592103 868.99313248 52.7986145 880.5682354 C44.58620395 908.06187156 36.32372102 935.53984999 28 963 C26 962 26 962 25.19535828 960.02012634 C24.93197159 959.13941971 24.6685849 958.25871307 24.3972168 957.35131836 C24.08932724 956.33581406 23.78143768 955.32030975 23.46421814 954.27403259 C22.96179344 952.57410912 22.96179344 952.57410912 22.44921875 950.83984375 C22.08796402 949.64061783 21.72670929 948.44139191 21.35450745 947.20582581 C20.55322214 944.54577753 19.75692577 941.88430116 18.9642334 939.22167969 C17.65870425 934.83685627 16.3422981 930.45534215 15.02441406 926.07421875 C13.32463985 920.4209674 11.62757508 914.76691449 9.93343925 909.1119709 C6.42239185 897.39354974 2.88860364 885.68207331 -0.65234375 873.97265625 C-0.93736881 873.03002993 -1.22239388 872.0874036 -1.51605606 871.11621284 C-2.69028707 867.23286796 -3.86456726 863.34953795 -5.03896904 859.4662447 C-8.44447294 848.20500391 -11.8453494 836.94236634 -15.24609375 825.6796875 C-15.88630051 823.55952418 -16.52650844 821.43936122 -17.16671753 819.31919861 C-19.11123564 812.8794931 -21.05563492 806.43975172 -23 800 C-23.48320583 798.39962639 -23.48320583 798.39962639 -23.9761734 796.766922 C-32.29288303 769.22194227 -40.60830063 741.67657256 -48.92318726 714.13104248 C-53.61915172 698.57427661 -58.31534296 683.01757921 -63.01171875 667.4609375 C-63.50678673 665.82103379 -63.50678673 665.82103379 -64.01185608 664.14800072 C-66.671532 655.33787748 -69.3312221 646.52775852 -71.99091339 637.71763992 C-74.30254282 630.06045992 -76.61416574 622.40327796 -78.92578125 614.74609375 C-79.41734459 613.11780105 -79.41734459 613.11780105 -79.9188385 611.45661354 C-84.44143705 596.47557952 -88.96382388 581.49448159 -93.48605347 566.51333618 C-96.00964517 558.15323914 -98.53329603 549.79315996 -101.05695915 541.43308449 C-103.08715525 534.70768556 -105.11730586 527.9822729 -107.14730644 521.25681496 C-107.78469683 519.14528622 -108.42217397 517.03378366 -109.05974007 514.92230797 C-110.59530673 509.83664828 -112.12966042 504.75063024 -113.66110229 499.66372681 C-116.36927992 490.67344429 -119.08947856 481.68747436 -121.86019802 472.71623707 C-123.0941206 468.71924375 -124.32128427 464.72018895 -125.54808998 460.72100639 C-126.12619244 458.84387538 -126.70780058 456.96781988 -127.29317284 455.09294319 C-128.09652791 452.51956341 -128.88795464 449.94278658 -129.67700195 447.36499023 C-130.03291255 446.24226243 -130.03291255 446.24226243 -130.39601326 445.09685326 C-132.24912977 438.97377425 -132.73679497 433.45166862 -130.77270508 427.25146484 C-130.49926773 426.37071289 -130.22583038 425.48996094 -129.94410706 424.58251953 C-129.48644203 423.16108643 -129.48644203 423.16108643 -129.01953125 421.7109375 C-128.69979843 420.68935547 -128.38006561 419.66777344 -128.05064392 418.61523438 C-127.3505788 416.38185438 -126.64604572 414.14987119 -125.93762207 411.91912842 C-124.17815604 406.37681996 -122.44664601 400.82579375 -120.71178055 395.27574539 C-120.09011602 393.28839525 -119.46721529 391.30143589 -118.84408569 389.31454468 C-114.27921305 374.74937933 -109.84056079 360.14620184 -105.40745544 345.54050064 C-104.299614 341.89153646 -103.19028133 338.24302572 -102.08105469 334.59448242 C-100.28176894 328.67564409 -98.48316563 322.75659886 -96.68505859 316.83740234 C-92.53215715 303.1669599 -88.3737341 289.49819706 -84.21437073 275.82971954 C-83.56153336 273.68432337 -82.90875422 271.53890948 -82.25598145 269.39349365 C-75.0608128 245.74669201 -67.84182577 222.10721201 -60.61502075 198.47006226 C-53.89347405 176.48505784 -47.18958185 154.49475071 -40.5 132.5 C-33.31526984 108.8779447 -26.1160374 85.2603606 -18.90097046 61.64755249 C-18.20164902 59.35880704 -17.50242501 57.07003184 -16.80322266 54.78125 C-15.69535753 51.15487962 -14.58717018 47.52860784 -13.47873878 43.90241051 C-12.89387106 41.98892065 -12.30919532 40.07537211 -11.72453308 38.16181946 C-7.8333417 25.43593864 -3.9135684 12.71909729 0 0 Z " fill="#083049" transform="translate(656,0)"/>
<path d="M0 0 C25.08 0 50.16 0 76 0 C79.37500675 9.00001799 79.37500675 9.00001799 80.39823914 12.41804504 C80.75143723 13.59052418 80.75143723 13.59052418 81.11177063 14.78668976 C81.3593663 15.61867638 81.60696198 16.45066299 81.86206055 17.30786133 C82.13369019 18.21247353 82.40531982 19.11708572 82.68518066 20.04911041 C83.58832465 23.05930233 84.48752519 26.07065714 85.38671875 29.08203125 C86.03368591 31.24137781 86.6808935 33.40065235 87.32832336 35.55986023 C89.08356566 41.41622524 90.83536287 47.27361575 92.58654785 53.13119507 C94.44436708 59.34327169 96.3053992 65.55438573 98.16601562 71.765625 C102.41037666 85.93687387 106.64992205 100.10956056 110.88829803 114.2826004 C112.30663377 119.02534699 113.72520209 123.76802399 115.14378262 128.51069736 C120.42266315 146.15940529 125.70090928 163.80830297 130.97669506 181.45793629 C141.13927008 215.45541951 151.32880664 249.44475739 161.52974319 283.43074799 C173.38479685 322.92811805 185.21103533 362.43403949 197.02245903 401.94447708 C198.6698665 407.4551884 200.31732686 412.9658839 201.96484375 418.4765625 C202.28006863 419.53094765 202.5952935 420.58533279 202.92007065 421.67166901 C207.93666208 438.45080611 212.96306311 455.22695868 218 472 C226.06189267 498.84811826 234.09386651 525.70516738 242.125 552.5625 C242.81706693 554.87682104 243.50913439 557.19114192 244.20120239 559.50546265 C250.8163071 581.62704158 257.43047585 603.74890024 264.04319 625.87119389 C267.6742096 638.01842062 271.30564469 650.1655231 274.9375 662.3125 C275.26570992 663.41023365 275.59391983 664.5079673 275.9320755 665.63896561 C287.11438567 703.03848997 298.32393673 740.42979685 309.54629517 777.81732178 C317.35788353 803.84210432 325.16148779 829.86924209 332.9453125 855.90234375 C333.49598263 857.74402571 333.49598263 857.74402571 334.0577774 859.62291336 C337.60406056 871.48368454 341.14937371 883.34474511 344.69281197 895.20636654 C345.98410975 899.52866099 347.27583514 903.85082758 348.56762314 908.17297554 C349.43566926 911.0779899 350.303073 913.98319549 351.17044067 916.88841248 C352.49622817 921.32686528 353.82600541 925.76410376 355.15912628 930.20035934 C355.75545875 932.18581397 356.35076808 934.17157602 356.94536591 936.15755081 C357.90871103 939.3723851 358.87646602 942.58586271 359.84521484 945.79907227 C360.14554438 946.80370231 360.44587391 947.80833235 360.75530434 948.84340572 C361.03419691 949.76528462 361.31308949 950.68716352 361.60043335 951.63697815 C361.84693823 952.45665856 362.09344311 953.27633898 362.34741783 954.12085819 C362.84289088 955.98822491 362.84289088 955.98822491 364 957 C364.40676468 955.63816841 364.40676468 955.63816841 364.82174683 954.24882507 C367.37647451 945.69809757 369.93648994 937.14896899 372.50170708 928.60138226 C373.82037697 924.20680933 375.1371696 919.81169199 376.44970703 915.4152832 C377.71615569 911.17350122 378.98748949 906.933212 380.26224136 902.69391823 C380.74801476 901.07530867 381.2320177 899.4561667 381.71422958 897.83649254 C382.38929684 895.57014784 383.07060199 893.3057682 383.75341797 891.04174805 C383.95194366 890.36992996 384.15046936 889.69811188 384.35501099 889.00593567 C385.2864092 885.94017061 386.20343318 883.69485023 388 881 C391.71430859 892.53898988 395.37399183 904.08494124 398.75390625 915.7265625 C400.13811424 920.49377035 401.56876878 925.24673667 403 930 C404.85322143 936.16094735 406.69088216 942.32595696 408.5 948.5 C411.2887032 958.01341055 414.14447003 967.5064748 417 977 C418.08391249 980.60399289 419.16713626 984.20819188 420.25 987.8125 C420.49613037 988.63016846 420.74226074 989.44783691 420.99584961 990.2902832 C421.45687793 991.82486936 421.9147958 993.36039446 422.36914062 994.89697266 C422.94534616 996.81780642 423.55681175 998.72797247 424.171875 1000.63671875 C425.72887395 1006.9601909 424.92759694 1012.11159658 423.04394531 1018.27368164 C422.83579193 1018.96422638 422.62763855 1019.65477112 422.41317749 1020.36624146 C421.72724517 1022.63375392 421.02775398 1024.89683622 420.328125 1027.16015625 C419.84358195 1028.75302335 419.35993434 1030.34616308 418.87713623 1031.93955994 C417.60482705 1036.13054107 416.32114149 1040.31794951 415.03479004 1044.50463867 C413.48658908 1049.55068049 411.9514339 1054.60070198 410.41462326 1059.65022182 C409.21563259 1063.58899897 408.01474777 1067.52715936 406.80743408 1071.46339417 C406.58244232 1072.19844681 406.35745056 1072.93349945 406.12564087 1073.69082642 C405.52333766 1075.65819987 404.91983433 1077.6252058 404.31622314 1079.59217834 C402.48881768 1085.71186815 400.75456309 1091.85902919 399 1098 C375.9 1098 352.8 1098 329 1098 C325.62499325 1088.99998201 325.62499325 1088.99998201 324.60176086 1085.58195496 C324.36629453 1084.80029905 324.13082819 1084.01864315 323.88822651 1083.2133007 C323.64063178 1082.38131723 323.39303705 1081.54933376 323.13793945 1080.69213867 C322.86631831 1079.7875548 322.59469717 1078.88297092 322.31484509 1077.95097542 C321.41169252 1074.9407549 320.51248357 1071.92937142 319.61328125 1068.91796875 C318.96617678 1066.75816442 318.31883185 1064.59843212 317.67126465 1062.43876648 C315.91595729 1056.58218536 314.16409412 1050.72457902 312.41284561 1044.86678314 C310.55742189 1038.66270585 308.69879245 1032.45958899 306.84057617 1026.25634766 C302.59601807 1012.08440947 298.35629769 997.91102685 294.11767578 983.73731232 C292.68588909 978.94966806 291.25384817 974.16209987 289.82178783 969.37453747 C284.48517438 951.53352974 279.14917782 933.6923375 273.81579494 915.85036373 C264.25607476 883.87004171 254.6738394 851.8965357 245.07762527 819.92714691 C234.08548501 783.30683642 223.12232043 746.67791673 212.17089844 710.04541016 C210.16088507 703.32191685 208.15081001 696.59844199 206.140625 689.875 C205.8207814 688.80521912 205.50093781 687.73543823 205.17140198 686.63323975 C200.1241757 669.75250974 195.06746964 652.87466461 190 636 C181.93810168 609.15188344 173.90613348 582.29483261 165.875 555.4375 C165.18293307 553.12317896 164.49086561 550.80885808 163.79879761 548.49453735 C157.1836929 526.37295842 150.56952415 504.25109976 143.95681 482.12880611 C140.3257904 469.98157938 136.69435531 457.8344769 133.0625 445.6875 C132.73429008 444.58976635 132.40608017 443.4920327 132.0679245 442.36103439 C120.88190217 404.94909463 109.66811501 367.54553114 98.44262695 330.14541626 C86.93036583 291.78925226 75.44767295 253.42430432 63.97754097 215.05552292 C62.3301335 209.5448116 60.68267314 204.0341161 59.03515625 198.5234375 C58.56231894 196.94185978 58.56231894 196.94185978 58.07992935 195.32833099 C53.39274443 179.65096928 48.69804866 163.97589536 43.99215698 148.30413818 C36.0965687 122.00979646 28.21500048 95.7112422 20.34147644 69.41028595 C18.49338505 63.23695142 16.64468739 57.06380008 14.79443359 50.89111328 C13.04456433 45.0532096 11.29644718 39.21478404 9.54962158 33.37596893 C8.89705594 31.19583258 8.24386843 29.01588226 7.59002686 26.83612823 C6.684633 23.81736089 5.78150119 20.79792551 4.87890625 17.77832031 C4.61510666 16.90066513 4.35130707 16.02300995 4.07951355 15.11875916 C3.83356949 14.29430801 3.58762543 13.46985687 3.33422852 12.62042236 C3.12347183 11.91667103 2.91271515 11.21291969 2.6955719 10.48784256 C1.72365076 7.01158542 0.87544928 3.5017971 0 0 Z " fill="#083049" transform="translate(0,0)"/>
<path d="M0 0 C25.08 0 50.16 0 76 0 C85.18836153 28.71362979 85.18836153 28.71362979 89.34375 42.7109375 C89.8263619 44.32940325 90.30920974 45.94779866 90.79226685 47.56613159 C91.8236374 51.02303879 92.85351222 54.48038637 93.88214111 57.93811035 C95.55602893 63.56466123 97.23355962 69.19012237 98.91162109 74.81542969 C100.71941883 80.87611973 102.52704813 86.93685958 104.33358765 92.9979248 C108.77987203 107.91496186 113.23478478 122.82940357 117.6953125 137.7421875 C118.01815594 138.82154383 118.34099937 139.90090015 118.67362595 141.01296425 C120.3224164 146.5251342 121.97137165 152.03725483 123.62042236 157.54934692 C126.66574405 167.72864868 129.71027191 177.90818786 132.75483322 188.08771706 C133.78230494 191.52305844 134.80980671 194.95839083 135.83731079 198.39372253 C140.25496163 213.16384404 144.67119355 227.93438926 149.08662796 242.70517349 C162.37058739 287.14294644 175.66659165 331.5770366 189 376 C199.30967793 410.34879015 209.60150802 444.70286891 219.875 479.0625 C220.20641747 480.17089863 220.53783493 481.27929726 220.87929535 482.42128372 C226.25718902 500.40732399 231.63387005 518.39372671 237.01040649 536.38017273 C242.0480302 553.23278683 247.08608812 570.08527102 252.125 586.9375 C252.4565786 588.04646259 252.7881572 589.15542519 253.12978363 590.29799271 C263.67793022 625.57563133 274.24861919 660.84645832 284.8348999 696.1126709 C292.11553795 720.36708567 299.38671757 744.62429457 306.640625 768.88671875 C307.00180923 770.09474277 307.36299347 771.3027668 307.73512268 772.54739761 C311.25303447 784.31380185 314.77011967 796.08045257 318.28520966 807.84770012 C319.57186332 812.15459217 320.85898189 816.46134519 322.14619446 820.76807022 C322.7633433 822.83332104 323.3802794 824.89863544 323.99699402 826.96401596 C326.99368462 836.9995281 329.99980657 847.03160615 333.06835938 857.04541016 C333.30464931 857.81807252 333.54093925 858.59073488 333.7843895 859.38681126 C334.85692184 862.89340751 335.93353857 866.39859744 337.02032471 869.90080261 C337.38841248 871.10118668 337.75650024 872.30157074 338.13574219 873.53833008 C338.45033386 874.5546199 338.76492554 875.57090973 339.08905029 876.61799622 C339.82599195 879.35397544 340.41376081 882.02963356 340.94551086 884.80827332 C341.91977446 889.81708834 343.25626578 894.64909621 344.73608398 899.52929688 C345.00563589 900.43158744 345.2751878 901.333878 345.55290794 902.2635107 C346.44627018 905.24991858 347.34612217 908.23432786 348.24609375 911.21875 C348.88805134 913.35918434 349.52961791 915.49973598 350.17082214 917.64039612 C351.54122237 922.21261687 352.91442828 926.78398256 354.28961182 931.35476685 C356.45028572 938.53826538 358.60033261 945.72492097 360.74951172 952.91186523 C367.50211022 975.47858185 374.29694167 998.03106437 381.21532631 1020.5475502 C383.12409362 1026.767933 385.02144924 1032.99180771 386.9184866 1039.21577644 C388.70237327 1045.06274758 390.50681121 1050.90286257 392.32659245 1056.73875523 C393.44593276 1060.34487256 394.5462443 1063.95658901 395.64141273 1067.57011223 C396.14781445 1069.22668768 396.66216738 1070.88085803 397.1852932 1072.53222847 C402.35121659 1088.86266337 402.35121659 1088.86266337 399 1097 C398 1098 398 1098 395.22227478 1098.12025452 C393.98095291 1098.11803391 392.73963104 1098.11581329 391.46069336 1098.11352539 C390.77779739 1098.11367142 390.09490143 1098.11381744 389.39131165 1098.1139679 C387.12412386 1098.11326876 384.85701726 1098.1054764 382.58984375 1098.09765625 C381.02185613 1098.09579207 379.45386793 1098.09436817 377.88587952 1098.09336853 C373.75123497 1098.08954334 369.61662534 1098.07971306 365.48199463 1098.06866455 C361.26599602 1098.05845044 357.04999178 1098.05387091 352.83398438 1098.04882812 C344.55597353 1098.03809079 336.2779911 1098.02101436 328 1098 C324.7104211 1087.03752947 321.42386062 1076.07415874 318.1409359 1065.10969353 C316.61572752 1060.01605972 315.08956013 1054.92271775 313.56103516 1049.83007812 C312.08028716 1044.89648058 310.60227474 1039.96207048 309.12599564 1035.02713394 C308.56810417 1033.16384041 308.00929992 1031.30081987 307.44947433 1029.43810654 C303.88623052 1017.57930568 300.50599143 1005.68427047 297.28916931 993.72669983 C295.73115652 987.95987428 293.99130482 982.25666246 292.1875 976.5625 C289.19987562 966.9899224 286.34002434 957.38529901 283.5625 947.75 C277.78682119 927.73387602 271.87657219 907.75882684 265.55859375 887.90625 C259.59681151 869.1681176 253.86810591 850.35865213 248.19552612 831.53128052 C247.53117331 829.32751818 246.86561355 827.12411927 246.19876099 824.92111206 C242.86572114 813.90315296 239.64426985 802.90579124 236.93725586 791.71704102 C235.25225208 785.03452406 233.21206212 778.46096354 231.1875 771.875 C230.74562446 770.42641957 230.30397728 768.97776947 229.86254883 767.52905273 C227.0952141 758.46764128 224.24227612 749.43571882 221.33496094 740.41821289 C219.34089206 734.19060983 217.55019631 727.92495615 215.8425293 721.61352539 C214.1469119 715.39394802 212.21172323 709.26463725 210.23681641 703.12890625 C208.2285311 696.84345294 206.42541371 690.51516399 204.73632812 684.13671875 C203.83486479 680.78214438 202.84171424 677.5832982 201.60539246 674.3285675 C199.90511271 669.84173244 198.50608096 665.28945432 197.13793945 660.69213867 C196.86631831 659.7875548 196.59469717 658.88297092 196.31484509 657.95097542 C195.41169252 654.9407549 194.51248357 651.92937142 193.61328125 648.91796875 C192.96617678 646.75816442 192.31883185 644.59843212 191.67126465 642.43876648 C189.91595729 636.58218536 188.16409412 630.72457902 186.41284561 624.86678314 C184.55742189 618.66270585 182.69879245 612.45958899 180.84057617 606.25634766 C176.59601807 592.08440947 172.35629769 577.91102685 168.11767578 563.73731232 C166.68588909 558.94966806 165.25384817 554.16209987 163.82178783 549.37453747 C158.48517438 531.53352974 153.14917782 513.6923375 147.81579494 495.85036373 C138.25607476 463.87004171 128.6738394 431.8965357 119.07762527 399.92714691 C108.08548501 363.30683642 97.12232043 326.67791673 86.17089844 290.04541016 C84.16088507 283.32191685 82.15081001 276.59844199 80.140625 269.875 C79.8207814 268.80521912 79.50093781 267.73543823 79.17140198 266.63323975 C74.12417571 249.75250976 69.06748121 232.87466113 64 216 C54.35664724 183.88552128 44.75166749 151.75955245 35.1484375 119.63305664 C34.80656088 118.48935954 34.46468426 117.34566244 34.11244774 116.16730785 C31.30568439 106.77766038 31.30568439 106.77766038 29.99177933 102.38188744 C25.84555023 88.51068823 21.69526928 74.64071535 17.53813171 60.77278137 C15.61806715 54.36754847 13.69970869 47.96180509 11.78187656 41.55590343 C10.27916005 36.53709422 8.77414401 31.51898231 7.26739979 26.50138092 C6.35599825 23.46428052 5.44683518 20.42651372 4.53835487 17.38853836 C4.12178608 15.9972221 3.70426597 14.60619027 3.28572655 13.21546555 C2.72248612 11.3435325 2.16288803 9.47050464 1.60351562 7.59741211 C1.29144165 6.55669052 0.97936768 5.51596893 0.65783691 4.44371033 C0 2 0 2 0 0 Z " fill="#1C90B8" transform="translate(246,0)"/>
<path d="M0 0 C22.44 0 44.88 0 68 0 C68 94.71 68 189.42 68 287 C45.56 287 23.12 287 0 287 C-0.33 278.09 -0.66 269.18 -1 260 C-3.64 263.3 -6.28 266.6 -9 270 C-26.46801361 286.3777441 -49.26437231 290.81939018 -72.45361328 290.13623047 C-97.81207851 288.77956474 -118.34559066 276.66331876 -135.26953125 258.57421875 C-157.88884498 232.02887029 -163.39856995 195.87632806 -160.77734375 162.13378906 C-157.8357248 133.61872927 -146.08070082 105.8978971 -124 87 C-104.63372137 71.75397052 -80.47539347 64.67925598 -55.88623047 67.21826172 C-35.88160869 69.81525688 -18.19786627 77.36334758 -4 92 C-3.01 93.32 -2.02 94.64 -1 96 C-0.67 64.32 -0.34 32.64 0 0 Z M-81 141 C-91.4462266 154.41189263 -94.23226136 170.39231389 -92.7265625 187.01953125 C-91.20916711 197.94191503 -87.3174063 207.69375501 -80 216 C-79.46503906 216.61617187 -78.93007812 217.23234375 -78.37890625 217.8671875 C-74.14900032 222.41946502 -69.61376173 225.38024453 -64 228 C-63.35933594 228.32097656 -62.71867187 228.64195312 -62.05859375 228.97265625 C-52.93299421 232.81219422 -40.21592267 232.50270524 -30.9375 229.375 C-16.64092384 223.12298046 -7.8158243 213.33522097 -2 199 C0.11416224 192.3484663 0.33429411 186.13982106 0.3125 179.1875 C0.33666992 177.66286133 0.33666992 177.66286133 0.36132812 176.10742188 C0.37071298 161.38258016 -4.46447848 148.93313465 -14.62109375 138.2578125 C-24.15064606 129.21334413 -35.11356293 125.37628192 -48.20385742 125.59765625 C-60.65746833 126.12472984 -72.51839894 131.75825545 -81 141 Z " fill="#083049" transform="translate(2122,404)"/>
<path d="M0 0 C23.76 0 47.52 0 72 0 C74.495625 7.63125 76.99125 15.2625 79.5625 23.125 C87.51749326 47.43924299 95.49699149 71.74537793 103.48557949 96.0486002 C104.70005209 99.74332766 105.91449147 103.43806604 107.12890625 107.1328125 C107.36960154 107.86509504 107.61029682 108.59737759 107.8582859 109.35185051 C111.58465564 120.68919752 115.3072945 132.02776509 119.02734375 143.3671875 C119.39264663 144.48067786 119.39264663 144.48067786 119.76532936 145.61666298 C122.10475689 152.74765454 124.44385214 159.87875498 126.78237247 167.0100441 C127.42564892 168.97161428 128.06901579 170.93315477 128.7124176 172.89468384 C129.49030151 175.26626652 130.26801527 177.63790502 131.04551697 180.00961304 C131.39240067 181.06709747 131.73928436 182.12458191 132.09667969 183.21411133 C132.41938843 184.20061676 132.74209717 185.18712219 133.07458496 186.20352173 C133.6778925 188.02663499 134.29205804 189.84620178 134.9185791 191.66146851 C135.19455933 192.4624295 135.47053955 193.2633905 135.75488281 194.08862305 C135.99652161 194.77707809 136.2381604 195.46553314 136.48712158 196.17485046 C137 198 137 198 137 201 C137.66 201 138.32 201 139 201 C139.21881836 199.8538623 139.43763672 198.70772461 139.66308594 197.52685547 C141.3329855 190.04249729 143.94183982 182.82694849 146.390625 175.5703125 C146.93269418 173.95261561 147.47431556 172.33476862 148.01551819 170.71678162 C149.16151292 167.29311859 150.310102 163.87034235 151.46084595 160.44827271 C154.16484049 152.40636493 156.85512678 144.3598682 159.54609108 136.31359291 C160.13793611 134.54410719 160.72994544 132.77467641 161.32211876 131.00530052 C165.71552523 117.87792914 170.05911898 104.73599862 174.3125 91.5625 C179.9358449 74.16636759 185.69020895 56.81452403 191.46902084 39.4695549 C192.18068254 37.33296771 192.89176093 35.1961872 193.60269165 33.05935669 C194.72422443 29.68888467 195.84746086 26.31898508 196.97204971 22.94953156 C197.58747063 21.10473281 198.20157683 19.25949564 198.81564331 17.41424561 C199.19125397 16.29052551 199.56686462 15.16680542 199.95385742 14.0090332 C200.27803146 13.03730667 200.60220551 12.06558014 200.936203 11.06440735 C202.22471886 7.35266774 203.62042514 3.67886629 205 0 C228.43 0 251.86 0 276 0 C274.17769588 6.68178178 272.38107619 13.1067931 270.0234375 19.57421875 C269.60059227 20.75099937 269.60059227 20.75099937 269.16920471 21.95155334 C268.56065308 23.64385249 267.95023496 25.33548143 267.33810425 27.02648926 C265.99577031 30.73529342 264.66316131 34.44757134 263.32987976 38.15963745 C262.62289886 40.12783602 261.91546421 42.09587166 261.20759583 44.06375122 C257.41443372 54.6129501 253.67451302 65.18080968 249.9375 75.75 C248.50290164 79.80479279 247.06787865 83.85943525 245.6328125 87.9140625 C245.26359177 88.95737228 244.89437103 90.00068207 244.51396179 91.0756073 C238.85829141 107.05439708 233.18701424 123.02765783 227.51660156 139.0012207 C226.57615156 141.65054617 225.63572649 144.2998805 224.6953125 146.94921875 C224.46130737 147.60843889 224.22730225 148.26765903 223.98620605 148.94685555 C220.65817117 158.32270843 217.33459354 167.70013104 214.01405144 177.07863998 C202.79522254 208.76294566 191.47058721 240.40557558 180 272 C152.28 272 124.56 272 96 272 C89.38410885 253.9566605 82.80902977 235.92806829 76.48300171 217.78540039 C74.31844662 211.57894597 72.1455561 205.37541157 69.97265625 199.171875 C69.54213455 197.94251221 69.11161285 196.71314941 68.66804504 195.4465332 C65.04749829 185.11672002 61.38086312 174.8039676 57.6875 164.5 C51.39259405 146.93249478 45.15810232 129.34391507 38.9375 111.75 C36.97018187 106.18615202 35.00274009 100.62234777 33.03515625 95.05859375 C32.78876719 94.36185736 32.54237812 93.66512096 32.28852272 92.94727135 C26.73349876 77.23960846 21.16503374 61.53672153 15.59279251 45.8351593 C14.88332813 43.83596774 14.1739388 41.83674957 13.46456909 39.83752441 C12.56593925 37.30492976 11.6671331 34.7723979 10.76823425 32.23989868 C9.93424481 29.89006435 9.10058218 27.540114 8.26728821 25.19003296 C6.61596501 20.53564402 4.96212999 15.88249445 3.27832031 11.23974609 C3.03598663 10.56989182 2.79365295 9.90003754 2.54397583 9.20988464 C1.94767258 7.56557121 1.34737045 5.92270928 0.74658203 4.2800293 C0 2 0 2 0 0 Z " fill="#083049" transform="translate(1196,419)"/>
<path d="M0 0 C23.00658688 -0.49023879 44.0397474 3.72648881 64.1640625 15.1171875 C65.17210938 15.684375 66.18015625 16.2515625 67.21875 16.8359375 C90.35871836 30.73302898 103.32404692 53.19880265 110.09765625 78.62109375 C113.66566246 94.17350358 114.29941035 111.29188734 112.1640625 127.1171875 C111.1640625 128.1171875 111.1640625 128.1171875 108.71402645 128.24023533 C107.06724329 128.23885264 107.06724329 128.23885264 105.38719177 128.23744202 C104.13210815 128.23881668 102.87702454 128.24019135 101.58390808 128.24160767 C100.18020606 128.23806805 98.77650428 128.23443324 97.37280273 128.23071289 C95.90469362 128.23043103 94.43658437 128.23058874 92.96847534 128.2311554 C88.97071593 128.2314434 84.97298626 128.22554624 80.97523379 128.21858144 C76.80185517 128.21234835 72.62847594 128.21174414 68.45509338 128.21055603 C60.54673458 128.20744258 52.63838953 128.19922901 44.7300368 128.18920654 C35.72897756 128.17804582 26.72791768 128.17253506 17.72685325 128.16751111 C-0.79408481 128.15704641 -19.31501005 128.1394467 -37.8359375 128.1171875 C-37.23304264 130.6713345 -36.62112088 133.22274758 -36.00390625 135.7734375 C-35.83564331 136.49047852 -35.66738037 137.20751953 -35.49401855 137.94628906 C-32.95083149 148.36948015 -27.6003355 155.87543695 -18.8359375 162.1171875 C-8.62447401 167.76294857 3.10145444 168.86456074 14.48046875 166.3984375 C17.16886269 165.47114724 19.63769455 164.41917235 22.1640625 163.1171875 C23.14246094 162.62605469 23.14246094 162.62605469 24.140625 162.125 C28.33137739 159.5957794 29.76064857 156.8828267 31.84008789 152.50073242 C34.17850284 148.78636095 35.30403185 147.36242535 39.57199097 146.14541626 C43.91446634 145.69866135 48.24360348 145.87907311 52.59765625 146.04296875 C54.20185495 146.06350729 55.80612305 146.07915495 57.41041565 146.09013367 C61.61597056 146.1319682 65.81728901 146.23984739 70.0211792 146.36187744 C74.31757283 146.47478265 78.61465718 146.5247221 82.91210938 146.58007812 C91.33136304 146.69775341 99.74718465 146.88526187 108.1640625 147.1171875 C107.54581182 149.35237432 106.92211526 151.58605525 106.29614258 153.8190918 C105.94940994 155.06313278 105.60267731 156.30717377 105.24543762 157.58891296 C103.892392 162.0035849 102.10116779 165.91372911 99.8515625 169.9296875 C99.45839844 170.64906494 99.06523437 171.36844238 98.66015625 172.10961914 C95.62912014 177.54125061 92.28106984 182.44407024 88.1640625 187.1171875 C87.50019531 187.92285156 86.83632812 188.72851562 86.15234375 189.55859375 C68.7541889 210.01782431 42.5172776 220.84113902 16.1640625 223.1171875 C-15.94053265 225.05899769 -46.64207325 217.90095475 -71.27832031 196.50976562 C-90.20756845 179.58618704 -100.36227748 155.90522542 -103.8359375 131.1171875 C-103.96613281 130.27671875 -104.09632813 129.43625 -104.23046875 128.5703125 C-108.17086305 98.0979299 -102.12388341 64.22930994 -83.16796875 39.55859375 C-64.57493281 16.38825201 -38.41422139 3.56338571 -9.0859375 0.3046875 C-6.05848635 0.14233208 -3.03062652 0.09258533 0 0 Z M-27.9765625 67.74609375 C-33.51094113 74.80358918 -35.72562609 81.23469625 -36.8359375 90.1171875 C-10.1059375 90.1171875 16.6240625 90.1171875 44.1640625 90.1171875 C43.11862992 79.66286171 41.2712306 71.5109194 33.4140625 64.1796875 C14.87103841 49.69846869 -11.50417349 50.31830618 -27.9765625 67.74609375 Z " fill="#083049" transform="translate(2327.8359375,470.8828125)"/>
<path d="M0 0 C18.57080026 17.24667903 28.89673228 40.42287336 32.375 65.25 C32.46656618 67.98316398 32.51540635 70.68952526 32.5078125 73.421875 C32.50876923 74.18550354 32.50972595 74.94913208 32.51071167 75.73590088 C32.5113887 77.339397 32.50956787 78.94289594 32.50537109 80.54638672 C32.49998633 83.00624674 32.50534734 85.46592663 32.51171875 87.92578125 C32.51105846 89.48697957 32.50977833 91.04817778 32.5078125 92.609375 C32.50983673 93.34581238 32.51186096 94.08224976 32.51394653 94.84100342 C32.48998158 100.02003684 32.48998158 100.02003684 31.375 102.25 C-17.795 102.25 -66.965 102.25 -117.625 102.25 C-113.39317928 120.68825906 -113.39317928 120.68825906 -101.625 134.25 C-89.96529922 141.02853995 -78.67130803 143.23534182 -65.34375 140.6015625 C-58.98473662 138.51166204 -54.05881711 135.26092974 -49.625 130.25 C-48.87879515 128.69134174 -48.1378605 127.1301509 -47.40185547 125.56665039 C-45.244742 122.30226876 -44.19995626 121.38849073 -40.34698486 120.4604187 C-36.0390331 120.20534305 -31.81735276 120.23691919 -27.5078125 120.37109375 C-25.92458726 120.38789399 -24.34131501 120.4006985 -22.75802612 120.40968323 C-18.60405773 120.44393945 -14.4529521 120.53224056 -10.30010986 120.63201904 C-6.05723806 120.72432824 -1.81390044 120.76524192 2.4296875 120.81054688 C10.74610102 120.90687804 19.06019378 121.06033858 27.375 121.25 C26.42805135 129.85135708 26.42805135 129.85135708 24.9921875 133.14453125 C24.71600586 133.78414795 24.43982422 134.42376465 24.15527344 135.08276367 C23.70716309 136.06273315 23.70716309 136.06273315 23.25 137.0625 C22.77868652 138.10724487 22.77868652 138.10724487 22.29785156 139.1730957 C10.94277413 163.7521307 -8.48358077 180.75426556 -33.37109375 190.8125 C-63.42302991 201.68166098 -98.71923557 199.94004301 -127.62890625 186.43359375 C-152.34772454 174.21199859 -169.71758282 153.35727733 -178.80273438 127.45019531 C-188.98342835 96.1719709 -187.32129353 59.45861524 -172.75 29.875 C-160.56945838 6.13205931 -140.77988288 -10.93315035 -115.625 -19.75 C-76.8590349 -32.22290581 -31.62714632 -26.78236831 0 0 Z M-106.625 40.25 C-112.33964073 47.45044732 -115.82753148 55.26265739 -117.625 64.25 C-90.565 64.25 -63.505 64.25 -35.625 64.25 C-36.92112943 52.58483515 -39.37052277 44.05358178 -48.6953125 36.59375 C-65.49459898 24.65279376 -91.86695603 24.5294749 -106.625 40.25 Z " fill="#083049" transform="translate(1907.625,496.75)"/>
<path d="M0 0 C23.00658688 -0.49023879 44.0397474 3.72648881 64.1640625 15.1171875 C65.17210937 15.684375 66.18015625 16.2515625 67.21875 16.8359375 C88.80474778 29.79976619 102.68248863 51.16247342 109.1640625 75.1171875 C113.31453682 91.99694081 114.26078808 109.85414686 112.1640625 127.1171875 C111.1640625 128.1171875 111.1640625 128.1171875 108.71402645 128.24023533 C107.06724329 128.23885264 107.06724329 128.23885264 105.38719177 128.23744202 C104.13210815 128.23881668 102.87702454 128.24019135 101.58390808 128.24160767 C100.18020606 128.23806805 98.77650428 128.23443324 97.37280273 128.23071289 C95.90469362 128.23043103 94.43658437 128.23058874 92.96847534 128.2311554 C88.97071593 128.2314434 84.97298626 128.22554624 80.97523379 128.21858144 C76.80185517 128.21234835 72.62847594 128.21174414 68.45509338 128.21055603 C60.54673458 128.20744258 52.63838953 128.19922901 44.7300368 128.18920654 C35.72897756 128.17804582 26.72791768 128.17253506 17.72685325 128.16751111 C-0.79408481 128.15704641 -19.31501005 128.1394467 -37.8359375 128.1171875 C-37.23304264 130.6713345 -36.62112088 133.22274758 -36.00390625 135.7734375 C-35.83564331 136.49047852 -35.66738037 137.20751953 -35.49401855 137.94628906 C-32.95083149 148.36948015 -27.6003355 155.87543695 -18.8359375 162.1171875 C-8.62447401 167.76294857 3.10145444 168.86456074 14.48046875 166.3984375 C17.16886269 165.47114724 19.63769455 164.41917235 22.1640625 163.1171875 C23.14246094 162.62605469 23.14246094 162.62605469 24.140625 162.125 C28.33137739 159.5957794 29.76064857 156.8828267 31.84008789 152.50073242 C34.17850284 148.78636095 35.30403185 147.36242535 39.57199097 146.14541626 C43.91446634 145.69866135 48.24360348 145.87907311 52.59765625 146.04296875 C54.20185495 146.06350729 55.80612305 146.07915495 57.41041565 146.09013367 C61.61597056 146.1319682 65.81728901 146.23984739 70.0211792 146.36187744 C74.31757283 146.47478265 78.61465718 146.5247221 82.91210938 146.58007812 C91.33136304 146.69775341 99.74718465 146.88526187 108.1640625 147.1171875 C107.54234315 149.35589056 106.9158497 151.59326814 106.28735352 153.83007812 C105.93898941 155.07615845 105.59062531 156.32223877 105.23170471 157.6060791 C103.92940499 161.88889544 102.26242073 165.7107933 100.1015625 169.6171875 C99.71726074 170.32367432 99.33295898 171.03016113 98.93701172 171.75805664 C85.64395977 195.42053885 63.69689959 212.10135968 37.6015625 219.4296875 C5.95060913 227.04028826 -28.82090859 224.50259418 -57.03466797 207.27832031 C-80.20176588 192.34436562 -95.78878953 169.59312694 -101.890625 142.71484375 C-102.68719879 138.8657029 -103.2904831 135.0095501 -103.8359375 131.1171875 C-103.96613281 130.27671875 -104.09632812 129.43625 -104.23046875 128.5703125 C-108.17086305 98.0979299 -102.12388341 64.22930994 -83.16796875 39.55859375 C-64.57493281 16.38825201 -38.41422139 3.56338571 -9.0859375 0.3046875 C-6.05848635 0.14233208 -3.03062652 0.09258533 0 0 Z M-27.9765625 67.74609375 C-33.51094113 74.80358918 -35.72562609 81.23469625 -36.8359375 90.1171875 C-10.1059375 90.1171875 16.6240625 90.1171875 44.1640625 90.1171875 C43.11862992 79.66286171 41.2712306 71.5109194 33.4140625 64.1796875 C14.88356211 49.73576134 -11.53366 50.3495029 -27.9765625 67.74609375 Z " fill="#083049" transform="translate(1589.8359375,470.8828125)"/>
<path d="M0 0 C0.96164063 0.50917969 1.92328125 1.01835937 2.9140625 1.54296875 C25.12253964 14.28500062 38.3455905 37.35598061 45.140625 61.2578125 C47.50641957 71.55977249 48.29572412 81.31270478 48.20581055 91.83959961 C48.18726981 94.09044462 48.18530351 96.34088256 48.18554688 98.59179688 C48.14817389 109.55547833 48.14817389 109.55547833 47 113 C-2.17 113 -51.34 113 -102 113 C-97.76817928 131.43825906 -97.76817928 131.43825906 -86 145 C-74.28273834 151.81200382 -63.17470575 153.83194215 -49.7890625 151.421875 C-39.46810494 148.16885113 -33.24144424 141.17252742 -28 132 C-4.57 132 18.86 132 43 132 C41.87329661 141.01362714 41.87329661 141.01362714 40.6171875 143.89453125 C40.34100586 144.53414795 40.06482422 145.17376465 39.78027344 145.83276367 C39.33216309 146.81273315 39.33216309 146.81273315 38.875 147.8125 C38.40368652 148.85724487 38.40368652 148.85724487 37.92285156 149.9230957 C26.56777413 174.5021307 7.14141923 191.50426556 -17.74609375 201.5625 C-47.79802991 212.43166098 -83.09423557 210.69004301 -112.00390625 197.18359375 C-136.02122451 185.30883756 -153.66545351 165.05318775 -162.53515625 139.78125 C-173.20154096 107.59048417 -171.97411622 70.60401234 -157.15161133 39.91796875 C-145.181807 16.27336108 -124.41454489 -0.341151 -99.6796875 -9.1875 C-66.70034469 -19.79078752 -30.20800286 -16.88894251 0 0 Z M-92 52 C-97.10142359 59.13720295 -100.2796096 66.39804798 -102 75 C-74.94 75 -47.88 75 -20 75 C-21.29612943 63.33483515 -23.74552277 54.80358178 -33.0703125 47.34375 C-50.50937427 34.94804059 -77.09977988 35.63074409 -92 52 Z " fill="#083049" transform="translate(3124,486)"/>
<path d="M0 0 C18.37755474 17.10575164 25.03815884 41.63887504 26.5078125 65.9140625 C26.82444586 75.50448923 26.74942422 85.10278014 26.71060038 94.69711661 C26.69791189 98.37390101 26.6969085 102.05069038 26.69454956 105.72749329 C26.68838709 112.65779632 26.67204889 119.58803461 26.65185058 126.51830941 C26.62509688 135.90596944 26.61447654 145.29364775 26.60284615 154.6813364 C26.5841631 169.42562672 26.54428317 184.16978057 26.5078125 198.9140625 C4.3978125 198.9140625 -17.7121875 198.9140625 -40.4921875 198.9140625 C-40.52957031 189.95765625 -40.56695313 181.00125 -40.60546875 171.7734375 C-40.63961385 165.3620714 -40.6756086 158.95073648 -40.71426487 152.53939819 C-40.76403716 144.24372999 -40.80951125 135.94811296 -40.83862305 127.65234375 C-40.8616943 121.08190001 -40.89519294 114.51160352 -40.94088906 107.94127679 C-40.96469916 104.46666595 -40.98350744 100.99219984 -40.98980141 97.51750946 C-40.99704714 93.62576957 -41.02758733 89.7343902 -41.05981445 85.84277344 C-41.05837936 84.70772369 -41.05694427 83.57267395 -41.0554657 82.40322876 C-41.21047657 69.09209001 -44.2135298 56.75766958 -53.3828125 46.8046875 C-61.95324141 39.12304381 -72.56463615 36.36701176 -83.859375 36.66796875 C-95.00450289 37.70972403 -105.07890188 41.4057405 -112.3671875 50.1640625 C-120.70136648 61.9103524 -121.78344265 75.45511985 -121.81103516 89.47558594 C-121.82108078 90.66727386 -121.8311264 91.85896179 -121.84147644 93.08676147 C-121.87209412 96.98231573 -121.88928374 100.87780196 -121.90625 104.7734375 C-121.92391437 107.49157137 -121.94445987 110.20968146 -121.9649353 112.92779541 C-122.01147953 119.32348682 -122.0483404 125.71919483 -122.08160818 132.11496758 C-122.12377889 140.12097552 -122.17907875 148.12688631 -122.234375 156.1328125 C-122.33281285 170.39317545 -122.41159574 184.65356277 -122.4921875 198.9140625 C-144.6021875 198.9140625 -166.7121875 198.9140625 -189.4921875 198.9140625 C-189.4921875 127.3040625 -189.4921875 55.6940625 -189.4921875 -18.0859375 C-167.3821875 -18.0859375 -145.2721875 -18.0859375 -122.4921875 -18.0859375 C-122.1621875 -9.5059375 -121.8321875 -0.9259375 -121.4921875 7.9140625 C-118.0271875 3.9540625 -118.0271875 3.9540625 -114.4921875 -0.0859375 C-82.37224727 -28.34182477 -32.03238069 -26.81080139 0 0 Z " fill="#083049" transform="translate(2663.4921875,492.0859375)"/>
<path d="M0 0 C17.88724769 15.2029728 29.81613941 34.45221622 34.94140625 57.5 C34.94140625 58.49 34.94140625 59.48 34.94140625 60.5 C11.18140625 60.5 -12.57859375 60.5 -37.05859375 60.5 C-39.03859375 56.54 -41.01859375 52.58 -43.05859375 48.5 C-50.08841296 40.87443339 -57.6196282 37.49170463 -68.03125 37.02954102 C-75.36259546 36.92590868 -81.62705681 37.80331481 -88.05859375 41.5 C-88.76371094 41.90089844 -89.46882813 42.30179688 -90.1953125 42.71484375 C-99.77589954 49.01065809 -104.29338687 59.75137326 -107.05859375 70.5 C-110.60045781 89.23292389 -109.81775038 111.42223895 -99.8125 128.09765625 C-93.81893469 136.3071054 -86.30477079 141.08021205 -76.3671875 143.02734375 C-66.16858888 144.31848924 -56.40672187 142.72947439 -48.05859375 136.5 C-42.53723529 131.40164884 -39.81233913 126.25674169 -36.05859375 119.5 C-12.62859375 119.5 10.80140625 119.5 34.94140625 119.5 C30.1856888 145.65644595 16.49900193 168.3038893 -5.29418945 183.77661133 C-16.83719162 191.61905834 -29.41999564 196.67103314 -43.05859375 199.5 C-44.64414063 199.83644531 -44.64414063 199.83644531 -46.26171875 200.1796875 C-75.4545561 205.32721679 -107.89161686 200.73754694 -132.89746094 184.29052734 C-156.13201104 167.99061644 -170.51011802 144.09919561 -175.85864258 116.41381836 C-181.50627684 83.77376899 -177.5030744 48.12128417 -158.12109375 20.5 C-156.79527645 18.81069433 -155.44048587 17.1437516 -154.05859375 15.5 C-153.29933594 14.57960938 -152.54007813 13.65921875 -151.7578125 12.7109375 C-115.77605095 -28.95215483 -42.7914359 -33.73173109 0 0 Z " fill="#083049" transform="translate(2899.05859375,492.5)"/>
<path d="M0 0 C2 1 2 1 2.69848633 2.6796875 C2.90755615 3.40414062 3.11662598 4.12859375 3.33203125 4.875 C3.57050781 5.68646484 3.80898438 6.49792969 4.0546875 7.33398438 C4.30476563 8.21376953 4.55484375 9.09355469 4.8125 10 C5.07675781 10.90556641 5.34101563 11.81113281 5.61328125 12.74414062 C6.15638283 14.60713571 6.69624373 16.47107848 7.23291016 18.3359375 C8.1104259 21.3835033 9.00397652 24.42611372 9.90087891 27.46801758 C10.30385683 28.83475972 10.70585842 30.20179007 11.10693359 31.5690918 C13.38519796 39.33524516 15.71653951 47.08543147 18.04980469 54.83520508 C18.79778648 57.32649182 19.54278552 59.81860906 20.28613281 62.3112793 C22.67404376 70.30831755 25.08189389 78.29776365 27.56474304 86.26591492 C28.71860949 89.97060278 29.86297515 93.67819869 31.00683594 97.38598633 C31.59212292 99.27467254 32.18173714 101.16202253 32.77539062 103.0480957 C33.65117523 105.8345313 34.51061006 108.62557786 35.3671875 111.41796875 C35.6327243 112.2493486 35.89826111 113.08072845 36.17184448 113.93730164 C39.78929817 125.88506114 36.78197189 135.27436952 33.1875 146.84765625 C32.69316496 148.47113978 32.19993678 150.09496071 31.70776367 151.71910095 C30.41672547 155.96882849 29.11081142 160.2138383 27.80163574 164.45800781 C26.46542826 168.79930868 25.14349282 173.14494904 23.8203125 177.49023438 C21.22740967 185.9977714 18.61875417 194.50038782 16 203 C15.34 203 14.68 203 14 203 C10.80652857 193.10133597 7.72397489 183.19706986 4.99407959 173.16009521 C3.41562747 167.40128826 1.71811055 161.68552401 -0.03125 155.9765625 C-0.4779026 154.51197098 -0.4779026 154.51197098 -0.93357849 153.01779175 C-2.7389024 147.10300493 -4.55693493 141.19220073 -6.38110352 135.28320312 C-8.30729279 129.04251106 -10.21592055 122.79665314 -12.10968113 116.5460434 C-13.20090474 112.94680718 -14.30051818 109.35054153 -15.41772461 105.75927734 C-16.52114477 102.21110502 -17.60316882 98.65703559 -18.67086601 95.09795761 C-19.07519694 93.76334478 -19.48695578 92.43095606 -19.90669441 91.10110855 C-22.37738465 83.25531903 -23.70786484 77.79836237 -21 70 C-20.47577861 68.1978923 -19.95209366 66.39561932 -19.4349432 64.59146976 C-18.3925797 60.98750902 -17.29713553 57.39953256 -16.2109375 53.80859375 C-15.74268891 52.25212436 -15.27472684 50.69556875 -14.80703735 49.13893127 C-13.58349807 45.06931757 -12.35610411 41.00087666 -11.12786865 36.93267822 C-9.8719511 32.77028135 -8.61973104 28.60677254 -7.3671875 24.44335938 C-4.91504964 16.29448806 -2.45883319 8.14685356 0 0 Z " fill="#083049" transform="translate(448,677)"/>
<path d="M0 0 C2.97 0 5.94 0 9 0 C9 20.13 9 40.26 9 61 C6.03 61 3.06 61 0 61 C-0.33 59.35 -0.66 57.7 -1 56 C-1.721875 56.61875 -2.44375 57.2375 -3.1875 57.875 C-8.82587075 62.13510235 -14.05090865 62.9668301 -21 62 C-27.02382784 60.0444385 -31.77189006 57.2860287 -35.10546875 51.80859375 C-38.62275372 44.6972272 -39.35454141 36.46928444 -36.9375 28.875 C-34.66452822 23.57498997 -30.85975963 18.49057081 -25.69921875 15.80078125 C-22.44882687 14.83648265 -19.57780832 14.62604492 -16.1875 14.5625 C-15.02605469 14.52253906 -13.86460937 14.48257813 -12.66796875 14.44140625 C-9 15 -9 15 -1 20 C-0.67 13.4 -0.34 6.8 0 0 Z M-27.4375 29.125 C-29.6711993 33.60202662 -29.66204776 38.11537935 -29 43 C-27.11130184 48.36787898 -24.08016831 51.45991584 -19 54 C-14.29302583 54.57425085 -10.87855208 54.45554552 -6.625 52.25 C-2.68710785 48.87466387 -0.3270874 46.06711463 0.23828125 40.765625 C0.42155705 34.55354007 -0.13779444 30.9515456 -4 26 C-7.32898526 23.22309893 -10.20947129 22.11293267 -14.5 21.5 C-20.46637075 22.35233868 -23.73220605 24.37462314 -27.4375 29.125 Z " fill="#083049" transform="translate(3286,632)"/>
<path d="M0 0 C2.64 0 5.28 0 8 0 C8 3.63 8 7.26 8 11 C11.96 11 15.92 11 20 11 C20 13.31 20 15.62 20 18 C16.04 18 12.08 18 8 18 C8.09363611 21.93309734 8.19975145 25.86564085 8.31738281 29.7980957 C8.37444092 31.7929536 8.42164442 33.7880854 8.46875 35.78320312 C8.50742188 37.03681641 8.54609375 38.29042969 8.5859375 39.58203125 C8.6173584 40.73936768 8.6487793 41.8967041 8.68115234 43.08911133 C8.79471033 46.19127028 8.79471033 46.19127028 11 49 C13.19454681 49.57993699 13.19454681 49.57993699 15.625 49.6875 C16.44226562 49.75324219 17.25953125 49.81898438 18.1015625 49.88671875 C18.72804688 49.92410156 19.35453125 49.96148438 20 50 C20 52.31 20 54.62 20 57 C17.93816367 57.08150744 15.87538651 57.1394194 13.8125 57.1875 C12.08966797 57.23970703 12.08966797 57.23970703 10.33203125 57.29296875 C6.64741969 56.96899939 4.88487139 56.28022694 2 54 C-0.48812091 50.35878161 -0.22953166 46.92098959 -0.1953125 42.609375 C-0.19106766 41.55245453 -0.19106766 41.55245453 -0.18673706 40.47418213 C-0.17557801 38.2326124 -0.15048193 35.99144814 -0.125 33.75 C-0.11496464 32.22656829 -0.10583976 30.70313029 -0.09765625 29.1796875 C-0.07565291 25.45299414 -0.04115272 21.72653667 0 18 C-1.98 18 -3.96 18 -6 18 C-6 15.69 -6 13.38 -6 11 C-4.02 11 -2.04 11 0 11 C0 7.37 0 3.74 0 0 Z " fill="#083049" transform="translate(3223,636)"/>
<path d="M0 0 C2.64 0 5.28 0 8 0 C8 16.83 8 33.66 8 51 C14.6 51 21.2 51 28 51 C28 53.31 28 55.62 28 58 C18.76 58 9.52 58 0 58 C0 38.86 0 19.72 0 0 Z " fill="#083049" transform="translate(3186,635)"/>
</svg>
